<?xml version="1.0" encoding="UTF-8"?>
<svg width="24px" height="24px" viewBox="0 0 24 24" version="1.1" xmlns="http://www.w3.org/2000/svg" xmlns:xlink="http://www.w3.org/1999/xlink">
    <!-- Generator: Sketch 56.2 (81672) - https://sketch.com -->
    <title>icon_iphone_active</title>
    <desc>Created with Sketch.</desc>
    <g id="页面-1" stroke="none" stroke-width="1" fill="none" fill-rule="evenodd">
        <g id="btn状态" transform="translate(-2195.000000, -496.000000)">
            <g id="icon_iphone_active" transform="translate(2195.000000, 496.000000)">
                <path d="M7.00247329,3 L16.9975267,3 C17.544239,3 18,3.44769743 18,3.9999602 L18,19.0000398 C18,19.5452911 17.5511774,20 16.9975267,20 L7.00247329,20 C6.45576096,20 6,19.5523026 6,19.0000398 L6,3.9999602 C6,3.45470893 6.44882258,3 7.00247329,3 Z M7,4 L7,17 L17,17 L17,4 L7,4 Z M11,18 L11,19 L13,19 L13,18 L11,18 Z M8,5 L16,5 L16,16 L8,16 L8,5 Z" id="Combined-Shape" fill="#FFFFFF" fill-rule="nonzero"></path>
                <polygon id="Stroke-1" stroke-opacity="0.00784313771" stroke="#000000" stroke-width="1.33333335e-11" points="0 0 23.9999985 0 23.9999985 23.9999985 0 23.9999985"></polygon>
            </g>
        </g>
    </g>
</svg>