<?xml version="1.0" encoding="UTF-8"?>
<svg width="24px" height="24px" viewBox="0 0 24 24" version="1.1" xmlns="http://www.w3.org/2000/svg" xmlns:xlink="http://www.w3.org/1999/xlink">
    <!-- Generator: Sketch 58 (84663) - https://sketch.com -->
    <title>icon_usb_active</title>
    <desc>Created with Sketch.</desc>
    <g id="浅色主题备份" stroke="none" stroke-width="1" fill="none" fill-rule="evenodd">
        <g id="btn状态" transform="translate(-2255.000000, -496.000000)">
            <g id="icon_usb_active" transform="translate(2255.000000, 496.000000)">
                <path d="M11.8543419,3.0309698 L11.9006482,3.07781037 L14.7699219,6.75636637 C14.9267025,6.95736712 14.8692699,7.11857073 14.6528576,7.14880144 L14.5749078,7.15390243 L12.28,7.153 L12.279,13.739 L16.4685132,11.9913504 C16.6280752,11.9247383 16.7399304,11.7815324 16.7686327,11.6149414 L16.7758903,11.5299434 L16.775,10.384 L16.1357796,10.3846717 C15.8910502,10.3846717 15.6896682,10.2060958 15.647938,9.97060379 L15.64,9.87986397 L15.64,7.65871012 C15.64,7.41652458 15.8153822,7.20603071 16.0466626,7.16224424 L16.1357796,7.15390243 L18.5042204,7.15390243 C18.7489498,7.15390243 18.9503318,7.33247831 18.992062,7.5679703 L19,7.65871012 L19,9.87986397 C19,10.1220495 18.8246178,10.3325434 18.5933374,10.3763298 L18.5042204,10.3846717 L17.879,10.384 L17.88,12.2300045 C17.88,12.4029937 17.790857,12.5614446 17.648078,12.6520874 L17.5723832,12.6915115 L12.279,14.897 L12.2796426,15.8372546 C13.2450584,16.0763787 13.96,16.9189434 13.96,17.9245051 C13.96,19.113922 12.9551002,20.0769794 11.7192873,20.0769794 C10.4806236,20.0769794 9.48,19.113922 9.48,17.9245051 C9.48,17.3148494 9.74167992,16.7651081 10.1630546,16.3734375 L6.86985583,13.7680615 C6.74994127,13.6732322 6.68,13.5287539 6.68,13.3758746 L6.67997295,11.3935426 C5.7136031,11.154145 5,10.3108176 5,9.3066722 C5,8.11403775 6.00301849,7.15390243 7.24111944,7.15390243 C8.47474263,7.15390243 9.48223888,8.11403775 9.48223888,9.3066722 C9.48223888,10.3108176 8.76545005,11.154145 7.80077003,11.3935426 L7.8,12.8675608 C7.8,13.0204485 7.8699488,13.1649336 7.98987432,13.2597624 L11.159,15.767 L11.16,7.153 L8.8650922,7.15390243 C8.611737,7.15390243 8.51774611,7.00973624 8.62632377,6.82084879 L8.67007812,6.75636637 L11.5393518,3.07781037 C11.6230017,2.97056691 11.7553942,2.95319521 11.8543419,3.0309698 Z" id="形状结合" fill="#FFFFFF" fill-rule="nonzero"></path>
                <polygon id="Stroke-1" stroke-opacity="0.00784313771" stroke="#000000" stroke-width="1.33333335e-11" points="0 0 23.9999985 0 23.9999985 23.9999985 0 23.9999985"></polygon>
            </g>
        </g>
    </g>
</svg>