<?xml version="1.0" encoding="UTF-8"?>
<svg width="24px" height="24px" viewBox="0 0 24 24" version="1.1" xmlns="http://www.w3.org/2000/svg" xmlns:xlink="http://www.w3.org/1999/xlink">
    <!-- Generator: Sketch 56.2 (81672) - https://sketch.com -->
    <title>fav_icon </title>
    <desc>Created with Sketch.</desc>
    <g id="页面-1" stroke="none" stroke-width="1" fill="none" fill-rule="evenodd" stroke-opacity="0.1">
        <g id="[1-2]新建相册-" transform="translate(-756.000000, -390.000000)" fill="#FFFFFF" fill-rule="nonzero" stroke="#000000">
            <g id="Group-4" transform="translate(310.000000, 75.000000)">
                <g id="音乐1">
                    <g id="Group" transform="translate(200.000000, 129.000000)">
                        <g id="fav_icon-" transform="translate(246.000000, 186.000000)">
                            <g id="fav_icon">
                                <path d="M12,7.53961564 C12.7352863,6.88386593 13.7070508,6.5 14.7,6.5 C16.8240407,6.5 18.5,8.17443709 18.5,10.2970027 C18.5,11.0558887 18.2988154,11.7860617 17.901378,12.5250056 C17.1840094,13.8587883 16.2392787,14.8310383 13.2050207,17.585876 L11.9987235,18.674713 L11.6635772,18.3698914 L10.7942968,17.5792641 C7.77452259,14.8434312 6.8228585,13.8656692 6.10363993,12.534145 C5.70287862,11.7921962 5.5,11.0590953 5.5,10.2970027 C5.5,8.17443708 7.17595933,6.5 9.3,6.5 C10.2929492,6.5 11.2647137,6.88386593 12,7.53961564 Z"></path>
                            </g>
                        </g>
                    </g>
                </g>
            </g>
        </g>
    </g>
</svg>