<?xml version="1.0" encoding="UTF-8"?>
<svg width="24px" height="24px" viewBox="0 0 24 24" version="1.1" xmlns="http://www.w3.org/2000/svg" xmlns:xlink="http://www.w3.org/1999/xlink">
    <!-- Generator: Sketch 58 (84663) - https://sketch.com -->
    <title>icon_trash_normal</title>
    <desc>Created with Sketch.</desc>
    <g id="深色主题备份" stroke="none" stroke-width="1" fill="none" fill-rule="evenodd">
        <g id="btn状态" transform="translate(-210.000000, -496.000000)">
            <g id="icon_trash_normal" transform="translate(210.000000, 496.000000)">
                <polygon id="Stroke-1" stroke-opacity="0.00784313771" stroke="#000000" stroke-width="1.33333335e-11" points="0 0 23.9999985 0 23.9999985 23.9999985 0 23.9999985"></polygon>
                <g id="trash" transform="translate(4.000000, 3.000000)" fill="#B0B5BF" fill-rule="nonzero">
                    <path d="M2.9064,16.52325 C3.8144,17.508 5.8944,18 7.9736,18 C10.0544,18 12.1328,17.508 13.0416,16.52325 C13.1064,16.22025 16,2.67225 16,2.36175 C16,0.507 10.1296,0 8,0 C4.0064,0 0,0.9315 0,2.358 C0,2.6625 2.8448,16.224 2.9064,16.52325 Z M8.0408,3.86025 C4.672,3.86025 1.9408,3.30075 1.9408,2.61 C1.9408,1.91925 4.672,1.35975 8.0408,1.35975 C11.4096,1.35975 14.14,1.91925 14.14,2.61 C14.14,3.30075 11.4096,3.86025 8.0408,3.86025 Z" id="形状"></path>
                </g>
            </g>
        </g>
    </g>
</svg>