<?xml version="1.0" encoding="UTF-8"?>
<svg width="24px" height="24px" viewBox="0 0 24 24" version="1.1" xmlns="http://www.w3.org/2000/svg" xmlns:xlink="http://www.w3.org/1999/xlink">
    <title>icon/截图录频dark</title>
    <defs>
        <path d="M15.0097143,16.9400794 C15.1568024,16.9400794 15.2800193,17.0422838 15.3122224,17.1795497 L15.3122224,17.1795497 L15.3204286,17.2507937 L15.3204286,18.3785714 L16.4482063,18.3785714 L16.5194503,18.3867776 C16.6338386,18.4136135 16.7238786,18.5036535 16.7507144,18.6180418 L16.7507144,18.6180418 L16.7589206,18.6892857 L16.7507144,18.7605296 C16.7238786,18.874918 16.6338386,18.9649579 16.5194503,18.9917938 L16.5194503,18.9917938 L16.4482063,19 L15.2974127,19 L15.2003468,18.9921679 C14.9476059,18.9509442 14.7480563,18.7513962 14.7068322,18.4986538 L14.7068322,18.4986538 L14.699,18.4015873 L14.699,17.2507937 L14.7072062,17.1795497 C14.7394092,17.0422838 14.8626262,16.9400794 15.0097143,16.9400794 Z M20.1882857,16.9400794 L20.2595296,16.9482856 C20.373918,16.9751214 20.4639579,17.0651614 20.4907938,17.1795497 L20.4907938,17.1795497 L20.499,17.2507937 L20.499,18.4015873 L20.4911679,18.498654 C20.4499443,18.7513967 20.2503967,18.9509443 19.997654,18.9921679 L19.997654,18.9921679 L19.9005873,19 L18.7497937,19 L18.6785497,18.9917938 C18.5412838,18.9595908 18.4390794,18.8363738 18.4390794,18.6892857 C18.4390794,18.5421976 18.5412838,18.4189807 18.6785497,18.3867776 L18.6785497,18.3867776 L18.7497937,18.3785714 L19.8775714,18.3785714 L19.8775714,17.2507937 L19.8857776,17.1795497 C19.9126135,17.0651614 20.0026535,16.9751214 20.1170418,16.9482856 L20.1170418,16.9482856 L20.1882857,16.9400794 Z M18.9828347,9.57173073 C18.9941726,9.67000799 19,9.76996319 19,9.87127946 L18.999,12.2 L18.7497937,12.2 L18.6353659,12.2065684 L18.564122,12.2147746 L18.4501477,12.2346393 L18.3140989,12.2744023 C18.0044953,12.3833759 17.7518628,12.6033063 17.5996017,12.8838876 C17.3995404,12.5171796 17.0293954,12.256597 16.5951744,12.2081476 L16.4482063,12.2 L15.2974127,12.2 L15.1199186,12.2110718 L14.9639086,12.2425526 C14.2517746,12.4175336 13.7670815,12.9789703 13.7056208,13.6524749 L13.699,13.7984127 L13.699,14.9492063 L13.7055684,15.0636341 L13.7137746,15.134878 L13.7336393,15.2488523 L13.7734023,15.3849011 C13.8823759,15.6945047 14.1023063,15.9471372 14.3828876,16.0993983 C14.0161796,16.2994596 13.755597,16.6696046 13.7071476,17.1038256 L13.699,17.2507937 L13.699,18.4015873 L13.7100717,18.5790813 L13.737,18.714 L5.58572843,18.7141633 C4.15774894,18.7141633 3.00014285,17.5565572 3.00014285,16.1285777 L3,9.571 L18.9828347,9.57173073 Z M18.0374921,14.6615079 L18.1541132,14.6682357 C18.6514519,14.7260008 19.0374921,15.1486721 19.0374921,15.6615079 L19.0374921,15.6615079 L19.0374921,16.5384921 L19.0307643,16.6551132 C18.9774427,17.1141951 18.6131951,17.4784427 18.1541132,17.5317643 L18.1541132,17.5317643 L18.0374921,17.5384921 L17.1605079,17.5384921 L17.0438868,17.5317643 C16.5465481,17.4739992 16.1605079,17.0513279 16.1605079,16.5384921 L16.1605079,16.5384921 L16.1605079,15.6615079 L16.1672357,15.5448868 C16.2250008,15.0475481 16.6476721,14.6615079 17.1605079,14.6615079 L17.1605079,14.6615079 L18.0374921,14.6615079 Z M16.4482063,13.2 L16.5194503,13.2082062 C16.6567162,13.2404092 16.7589206,13.3636262 16.7589206,13.5107143 C16.7589206,13.6578024 16.6567162,13.7810193 16.5194503,13.8132224 L16.5194503,13.8132224 L16.4482063,13.8214286 L15.3204286,13.8214286 L15.3204286,14.9492063 L15.3122224,15.0204503 C15.2853865,15.1348386 15.1953465,15.2248786 15.0809582,15.2517144 L15.0809582,15.2517144 L15.0097143,15.2599206 L14.9384704,15.2517144 C14.824082,15.2248786 14.7340421,15.1348386 14.7072062,15.0204503 L14.7072062,15.0204503 L14.699,14.9492063 L14.699,13.7984127 L14.7068322,13.701347 C14.7480564,13.4486065 14.9476065,13.2490564 15.200347,13.2078322 L15.200347,13.2078322 L15.2974127,13.2 L16.4482063,13.2 Z M19.9005873,13.2 L19.9976538,13.2078322 C20.2503962,13.2490563 20.4499442,13.4486059 20.4911679,13.7013468 L20.4911679,13.7013468 L20.499,13.7984127 L20.499,14.9492063 L20.4907938,15.0204503 C20.4639579,15.1348386 20.373918,15.2248786 20.2595296,15.2517144 L20.2595296,15.2517144 L20.1882857,15.2599206 L20.1170418,15.2517144 C20.0026535,15.2248786 19.9126135,15.1348386 19.8857776,15.0204503 L19.8857776,15.0204503 L19.8775714,14.9492063 L19.8775714,13.8214286 L18.7497937,13.8214286 L18.6785497,13.8132224 C18.5641614,13.7863865 18.4741214,13.6963465 18.4472856,13.5819582 L18.4472856,13.5819582 L18.4390794,13.5107143 L18.4472856,13.4394704 C18.4741214,13.325082 18.5641614,13.2350421 18.6785497,13.2082062 L18.6785497,13.2082062 L18.7497937,13.2 L19.9005873,13.2 Z M10.2937532,5 C11.0768377,5 11.7927123,5.44243483 12.1429184,6.14284694 C12.4931244,6.84325905 13.208999,7.28569388 13.9920836,7.28569388 L16.4144144,7.28569388 C17.3077598,7.28569388 18.0952873,7.73875377 18.559762,8.42763858 L3,8.428 L3.00014285,7.58558559 C3.00014285,6.1576061 4.15774894,5 5.58572843,5 L10.2937532,5 Z" id="path-1"></path>
    </defs>
    <g id="icon/截图录频dark" stroke="none" stroke-width="1" fill="none" fill-rule="evenodd">
        <mask id="mask-2" fill="white">
            <use xlink:href="#path-1"></use>
        </mask>
        <use id="形状结合" fill="#B0B5BF" fill-rule="nonzero" xlink:href="#path-1"></use>
    </g>
</svg>