<?xml version="1.0" encoding="UTF-8"?>
<svg width="24px" height="24px" viewBox="0 0 24 24" version="1.1" xmlns="http://www.w3.org/2000/svg" xmlns:xlink="http://www.w3.org/1999/xlink">
    <!-- Generator: Sketch 58 (84663) - https://sketch.com -->
    <title>icon_usb_normal</title>
    <desc>Created with Sketch.</desc>
    <g id="浅色主题备份" stroke="none" stroke-width="1" fill="none" fill-rule="evenodd">
        <g id="btn状态" transform="translate(-372.000000, -496.000000)">
            <g id="icon_usb_normal" transform="translate(372.000000, 496.000000)">
                <path d="M11.8543419,3.03220859 L11.9006482,3.08092279 L14.7818224,6.92248841 C14.9278925,7.11724855 14.8693889,7.28347223 14.6528695,7.31476937 L14.5749078,7.32005853 L12.28,7.32 L12.279,14.169 L16.4750159,12.3481811 C16.6316007,12.2801971 16.740805,12.1381181 16.7688106,11.9734947 L16.7758903,11.8895429 L16.775,10.68 L16.1357796,10.6800585 C15.8910502,10.6800585 15.6896682,10.5046763 15.647938,10.273396 L15.64,10.184279 L15.64,7.8158381 C15.64,7.57110869 15.8153822,7.36972672 16.0466626,7.32799652 L16.1357796,7.32005853 L18.5042204,7.32005853 C18.7489498,7.32005853 18.9503318,7.49544071 18.992062,7.72672109 L19,7.8158381 L19,10.184279 C19,10.4290084 18.8246178,10.6303903 18.5933374,10.6721205 L18.5042204,10.6800585 L17.879,10.68 L17.88,12.6176106 C17.88,12.7883999 17.7930815,12.9452156 17.6531232,13.0364449 L17.5788809,13.076355 L12.279,15.373 L12.2796426,16.3507448 C13.2450584,16.5994338 13.96,17.4757012 13.96,18.5214853 C13.96,19.7584789 12.9551002,20.7600585 11.7192873,20.7600585 C10.4806236,20.7600585 9.48,19.7584789 9.48,18.5214853 C9.48,17.8873223 9.74177987,17.3154941 10.163296,16.9081417 L6.8623973,14.1926498 C6.74691576,14.0976732 6.68,13.9559992 6.68,13.8064782 L6.67991241,11.7292687 C5.7135733,11.4802742 5,10.6032285 5,9.55893909 C5,8.31859926 6.00301849,7.32005853 7.24111944,7.32005853 C8.47474263,7.32005853 9.48223888,8.31859926 9.48223888,9.55893909 C9.48223888,10.6032285 8.76547999,11.4802742 7.80083046,11.7292687 L7.8,13.2778325 C7.8,13.4273618 7.86692317,13.5690428 7.98241565,13.6640192 L11.159,16.276 L11.16,7.32 L8.8650922,7.32005853 C8.611737,7.32005853 8.51343039,7.17587998 8.61635356,6.98697635 L8.65817759,6.92248841 L11.5393518,3.08092279 C11.6230017,2.96938958 11.7553942,2.95132302 11.8543419,3.03220859 Z" id="形状结合" fill="#626E88" fill-rule="nonzero"></path>
                <polygon id="Stroke-1" stroke-opacity="0.00784313771" stroke="#000000" stroke-width="1.33333335e-11" points="0 0 23.9999985 0 23.9999985 23.9999985 0 23.9999985"></polygon>
            </g>
        </g>
    </g>
</svg>