<?xml version="1.0" encoding="UTF-8"?>
<svg width="24px" height="24px" viewBox="0 0 24 24" version="1.1" xmlns="http://www.w3.org/2000/svg" xmlns:xlink="http://www.w3.org/1999/xlink">
    <title>icon/自定义light</title>
    <defs>
        <path d="M16.7654559,13.4535221 C16.8300982,13.4535221 16.8841731,13.4867165 16.9126107,13.5435917 L17.6639798,15.0764163 C17.7918906,15.3146731 18.0052042,15.4616178 18.2528751,15.4969993 L19.9375219,15.7451945 C20.0010385,15.7554815 20.0533884,15.7992023 20.0746336,15.8608135 C20.0936569,15.9179589 20.0783701,15.9812905 20.0312581,16.0284046 L18.8220373,17.215058 C18.6405109,17.3796232 18.5577184,17.6328709 18.5938566,17.8859621 L18.8818504,19.5770037 C18.8904358,19.6285345 18.8792336,19.6705427 18.8535923,19.6993892 C18.8097658,19.7536689 18.7671287,19.7742353 18.7231103,19.7742353 L18.7058316,19.7724149 L18.657867,19.7527365 L17.1326707,18.9523608 C17.0431385,18.8977842 16.9096848,18.8631838 16.7729926,18.8631838 C16.6645633,18.8631838 16.5492747,18.8878885 16.4552786,18.925487 L14.8975357,19.7517257 C14.863469,19.771204 14.8518084,19.7742353 14.822875,19.7742353 C14.7753873,19.7742353 14.7230439,19.7498904 14.6848318,19.7069067 C14.6592103,19.678081 14.6480077,19.6360701 14.6568655,19.5829105 L14.9499701,17.8995492 C14.987316,17.6396067 14.9019618,17.3930412 14.7269325,17.2180291 L13.5021668,16.0309738 C13.4523881,15.983348 13.4376431,15.9243676 13.4577825,15.8639496 C13.4797075,15.798166 13.5302258,15.7554197 13.5994708,15.7442512 L15.2799911,15.4967168 C15.5272431,15.4613995 15.7529746,15.3043622 15.8653599,15.0795917 L16.6198731,13.5404163 C16.6467386,13.4867165 16.7008135,13.4535221 16.7654559,13.4535221 Z M18.9828347,9.57173073 C18.9941726,9.67000799 19,9.76996319 19,9.87127946 L19,14.722 L18.423,14.638 L17.6967192,13.1552788 C17.5181184,12.7980475 17.1605043,12.5785221 16.7654559,12.5785221 L16.6353558,12.5865363 C16.2931661,12.6289685 15.9931138,12.8374067 15.8356773,13.1522798 L15.108,14.637 L13.4658732,14.8795309 C13.0700306,14.9433364 12.7528429,15.2117266 12.6276793,15.587266 L12.5937016,15.7155564 C12.5255602,16.05949 12.6359144,16.4132171 12.8952298,16.661247 L14.077,17.807 L13.919,18.714 L5.58572843,18.7141633 C4.15774894,18.7141633 3.00014285,17.5565572 3.00014285,16.1285777 L3,9.571 L18.9828347,9.57173073 Z M10.2937532,5 C11.0768377,5 11.7927123,5.44243483 12.1429184,6.14284694 C12.4931244,6.84325905 13.208999,7.28569388 13.9920836,7.28569388 L16.4144144,7.28569388 C17.3077598,7.28569388 18.0952873,7.73875377 18.559762,8.42763858 L3,8.428 L3.00014285,7.58558559 C3.00014285,6.1576061 4.15774894,5 5.58572843,5 L10.2937532,5 Z" id="path-1"></path>
    </defs>
    <g id="icon/自定义light" stroke="none" stroke-width="1" fill="none" fill-rule="evenodd">
        <mask id="mask-2" fill="white">
            <use xlink:href="#path-1"></use>
        </mask>
        <use id="形状结合" fill="#536076" xlink:href="#path-1"></use>
    </g>
</svg>