<?xml version="1.0" encoding="UTF-8"?>
<svg width="24px" height="24px" viewBox="0 0 24 24" version="1.1" xmlns="http://www.w3.org/2000/svg" xmlns:xlink="http://www.w3.org/1999/xlink">
    <title>icon/画板dark</title>
    <defs>
        <filter color-interpolation-filters="auto" id="filter-1">
            <feColorMatrix in="SourceGraphic" type="matrix" values="0 0 0 0 0.691948 0 0 0 0 0.709699 0 0 0 0 0.748160 0 0 0 1.000000 0"></feColorMatrix>
        </filter>
        <path d="M14.499,8 C16.4319966,8 17.999,9.56700338 17.999,11.5 C17.999,13.4329966 16.4319966,15 14.499,15 C13.927625,15 14.274125,14.5944375 13.6384375,13.94125 C13.0241875,13.31125 10.999,13.6853125 10.999,11.5 C10.999,9.56700338 12.5660034,8 14.499,8 Z M15.9828347,4.57173073 C15.9941726,4.67000799 16,4.76996319 16,4.87127946 L16.0000741,7.46926647 C15.5327523,7.29516062 15.0269891,7.2 14.499,7.2 C12.1241756,7.2 10.199,9.12517558 10.199,11.5 C10.199,12.5522321 10.5517901,13.2476468 11.2007654,13.7145369 L2.58572843,13.7141633 C1.15774894,13.7141633 0.000142846939,12.5565572 0.000142846939,11.1285777 L0,4.571 L15.9828347,4.57173073 Z M16.199,11.4 C15.7019437,11.4 15.299,11.8029437 15.299,12.3 C15.299,12.7970563 15.7019437,13.2 16.199,13.2 C16.6960563,13.2 17.099,12.7970563 17.099,12.3 C17.099,11.8029437 16.6960563,11.4 16.199,11.4 Z M15.299,9.4 C14.8571722,9.4 14.499,9.7581722 14.499,10.2 C14.499,10.6418278 14.8571722,11 15.299,11 C15.7408278,11 16.099,10.6418278 16.099,10.2 C16.099,9.7581722 15.7408278,9.4 15.299,9.4 Z M13.149,9.3 C12.7900149,9.3 12.499,9.59101491 12.499,9.95 C12.499,10.3089851 12.7900149,10.6 13.149,10.6 C13.5079851,10.6 13.799,10.3089851 13.799,9.95 C13.799,9.59101491 13.5079851,9.3 13.149,9.3 Z M7.29375317,0 C8.07683771,1.63250654e-15 8.79271231,0.442434833 9.14291836,1.14284694 C9.49312442,1.84325905 10.208999,2.28569388 10.9920836,2.28569388 L13.4144144,2.28569388 C14.3077598,2.28569388 15.0952873,2.73875377 15.559762,3.42763858 L0,3.428 L0.000142846939,2.58558559 C0.000142846939,1.1576061 1.15774894,2.62315576e-16 2.58572843,0 L7.29375317,0 Z" id="path-2"></path>
    </defs>
    <g id="icon/画板dark" stroke="none" stroke-width="1" fill="none" fill-rule="evenodd">
        <g filter="url(#filter-1)" id="编组-19">
            <g transform="translate(3.000000, 5.000000)">
                <mask id="mask-3" fill="white">
                    <use xlink:href="#path-2"></use>
                </mask>
                <use id="形状结合" fill="#B0B5BF" fill-rule="nonzero" xlink:href="#path-2"></use>
            </g>
        </g>
    </g>
</svg>