<?xml version="1.0" encoding="UTF-8"?>
<svg width="129px" height="128px" viewBox="0 0 129 128" version="1.1" xmlns="http://www.w3.org/2000/svg" xmlns:xlink="http://www.w3.org/1999/xlink">
    <title>icon_import_photo 2</title>
    <g id="v5.9" stroke="none" stroke-width="1" fill="none" fill-rule="evenodd">
        <g id="画板" transform="translate(-307.000000, -111.000000)">
            <g id="icon_import_photo" transform="translate(307.000000, 111.000000)">
                <g id="编组-5" transform="translate(49.904334, 67.683106) rotate(-15.000000) translate(-49.904334, -67.683106) translate(8.588544, 35.946264)">
                    <polygon id="矩形" fill="#252525" points="2.10526316 3.15789474 80.4736842 3.15789474 80.4736842 61.3684211 2.10526316 61.3684211"></polygon>
                    <path d="M76.6315789,0 C79.9452874,8.22077476e-15 82.6315789,2.6862915 82.6315789,6 L82.6315789,57.4736842 C82.6315789,60.7873927 79.9452874,63.4736842 76.6315789,63.4736842 L6,63.4736842 C2.6862915,63.4736842 4.82055882e-15,60.7873927 0,57.4736842 L0,6 C-4.05812251e-16,2.6862915 2.6862915,6.08718376e-16 6,0 L76.6315789,0 Z M77.4736842,3.15789474 L5.15789474,3.15789474 C4.05332524,3.15789474 3.15789474,4.05332524 3.15789474,5.15789474 L3.15789474,5.15789474 L3.15789474,58.3157895 C3.15789474,59.420359 4.05332524,60.3157895 5.15789474,60.3157895 L5.15789474,60.3157895 L77.4736842,60.3157895 C78.5782537,60.3157895 79.4736842,59.420359 79.4736842,58.3157895 L79.4736842,58.3157895 L79.4736842,5.15789474 C79.4736842,4.05332524 78.5782537,3.15789474 77.4736842,3.15789474 L77.4736842,3.15789474 Z" id="形状结合" fill="#55585D" fill-rule="nonzero"></path>
                    <path d="M19.1533345,11.4597629 C17.0698345,11.4597629 15.2993345,11.9597629 13.8408345,13.4597629 C12.3823345,14.9597629 11.6533345,16.4597629 11.6533345,18.9597629 C11.6533345,20.9597629 12.3823345,22.4597629 13.8408345,23.9597629 C15.2993345,25.4597629 17.0698345,26.4597629 19.1533345,26.4597629 C21.2368345,26.4597629 23.0073345,25.4597629 24.4658345,23.9597629 C25.9243345,22.4597629 26.6533345,20.9597629 26.6533345,18.9597629 C26.6533345,16.4597629 25.9243345,14.9597629 24.4658345,13.4597629 C23.0073345,11.9597629 21.2368345,11.4597629 19.1533345,11.4597629 Z M50.4033345,17.4597629 L30.4033345,37.4597629 L24.1533345,31.4597629 L11.6533345,43.9597629 L11.6533345,51.4597629 L71.6533345,51.4597629 L71.6533345,41.4597629 L50.4033345,17.4597629 Z" id="形状" fill="#55585D" fill-rule="nonzero"></path>
                </g>
                <g transform="translate(39.482886, 41.522303)">
                    <g id="编组-5">
                        <polygon id="矩形" fill="#252525" points="3 1 68 1 68 66 3 66"></polygon>
                        <path d="M64.6315789,0 C67.9452874,-8.55003309e-15 70.6315789,2.6862915 70.6315789,6 L70.6315789,62.4736842 C70.6315789,65.7873927 67.9452874,68.4736842 64.6315789,68.4736842 L6,68.4736842 C2.6862915,68.4736842 4.05812251e-16,65.7873927 0,62.4736842 L0,6 C-4.05812251e-16,2.6862915 2.6862915,4.16143205e-15 6,0 L64.6315789,0 Z M65.4736842,3.15789474 L5.15789474,3.15789474 C4.05332524,3.15789474 3.15789474,4.05332524 3.15789474,5.15789474 L3.15789474,5.15789474 L3.15789474,63.3157895 C3.15789474,64.420359 4.05332524,65.3157895 5.15789474,65.3157895 L5.15789474,65.3157895 L65.4736842,65.3157895 C66.5782537,65.3157895 67.4736842,64.420359 67.4736842,63.3157895 L67.4736842,63.3157895 L67.4736842,5.15789474 C67.4736842,4.05332524 66.5782537,3.15789474 65.4736842,3.15789474 L65.4736842,3.15789474 Z" id="形状结合" fill="#55585D" fill-rule="nonzero"></path>
                        <polygon id="路径" fill="#55585D" points="28 41.1036667 28 31 36.75 36.0518333 45.5 41.1036667 36.75 46.1555 28 51.2073333"></polygon>
                        <line x1="3.51711391" y1="18.4776967" x2="68.5171139" y2="18.4776967" id="路径" stroke="#55585D" stroke-width="3.5" stroke-linecap="round" stroke-linejoin="round"></line>
                        <g id="编组-7" transform="translate(14.000000, 2.000000)" stroke="#55585D" stroke-linecap="round" stroke-linejoin="round" stroke-width="4">
                            <line x1="43" y1="2.38742359e-11" x2="34" y2="15" id="路径" transform="translate(38.500000, 7.500000) scale(-1, 1) translate(-38.500000, -7.500000) "></line>
                            <line x1="9" y1="2.38742359e-11" x2="-2.84217094e-13" y2="15" id="路径" transform="translate(4.500000, 7.500000) scale(-1, 1) translate(-4.500000, -7.500000) "></line>
                            <line x1="26" y1="2.38742359e-11" x2="17" y2="15" id="路径" transform="translate(21.500000, 7.500000) scale(-1, 1) translate(-21.500000, -7.500000) "></line>
                        </g>
                    </g>
                    <circle id="椭圆形" stroke="#55585D" stroke-width="3" fill="#252525" cx="68.5171139" cy="47.4776967" r="19"></circle>
                    <path d="M74.8241483,47.1046111 C74.909454,47.1046111 74.9978064,47.1252799 75.0709256,47.1754754 C75.6315061,47.5622761 75.6254128,48.1882437 75.2659101,48.5425649 L68.6364367,55.0650287 C68.2982605,55.3957286 67.7468199,55.4016339 67.405597,55.0738867 L67.3964571,55.0650287 L60.7669837,48.5425649 C60.4288075,48.2089124 60.4349007,47.6744778 60.7791703,47.3496833 C60.9406418,47.1961441 61.1599994,47.1075638 61.3854502,47.1075638 L64.4808293,47.1075638 L64.4808293,39.8999295 C64.4808293,39.666668 64.6758138,39.4776967 64.9164978,39.4776967 L71.116396,39.4776967 C71.35708,39.4776967 71.5520645,39.666668 71.5520645,39.8999295 L71.5520645,47.1046111 L74.8241483,47.1046111 Z" id="形状" fill="#55585D" fill-rule="nonzero" transform="translate(68.017114, 47.397052) scale(1, -1) rotate(-270.000000) translate(-68.017114, -47.397052) "></path>
                </g>
            </g>
        </g>
    </g>
</svg>