<?xml version="1.0" encoding="UTF-8"?>
<svg width="129px" height="128px" viewBox="0 0 129 128" version="1.1" xmlns="http://www.w3.org/2000/svg" xmlns:xlink="http://www.w3.org/1999/xlink">
    <title>icon_import_photo</title>
    <g id="浅色主题12-10" stroke="none" stroke-width="1" fill="none" fill-rule="evenodd">
        <g id="相册-相册中无图片" transform="translate(-986.000000, -385.000000)">
            <g id="编组" transform="translate(899.000000, 385.000000)">
                <g id="icon_import_photo" transform="translate(87.000000, 0.000000)">
                    <g id="编组-5" transform="translate(50.150378, 67.889620) rotate(-15.000000) translate(-50.150378, -67.889620) translate(8.650378, 35.889620)">
                        <polygon id="矩形" fill="#FFFFFF" points="2.10526316 3.15789474 80.4736842 3.15789474 80.4736842 61.3684211 2.10526316 61.3684211"></polygon>
                        <path d="M76.6315789,0 C79.9452874,8.22077476e-15 82.6315789,2.6862915 82.6315789,6 L82.6315789,57.4736842 C82.6315789,60.7873927 79.9452874,63.4736842 76.6315789,63.4736842 L6,63.4736842 C2.6862915,63.4736842 4.82055882e-15,60.7873927 0,57.4736842 L0,6 C-4.05812251e-16,2.6862915 2.6862915,6.08718376e-16 6,0 L76.6315789,0 Z M77.4736842,3.15789474 L5.15789474,3.15789474 C4.05332524,3.15789474 3.15789474,4.05332524 3.15789474,5.15789474 L3.15789474,5.15789474 L3.15789474,58.3157895 C3.15789474,59.420359 4.05332524,60.3157895 5.15789474,60.3157895 L5.15789474,60.3157895 L77.4736842,60.3157895 C78.5782537,60.3157895 79.4736842,59.420359 79.4736842,58.3157895 L79.4736842,58.3157895 L79.4736842,5.15789474 C79.4736842,4.05332524 78.5782537,3.15789474 77.4736842,3.15789474 L77.4736842,3.15789474 Z" id="形状结合" fill="#EBEBEB" fill-rule="nonzero"></path>
                        <path d="M19.1533345,11.4597629 C17.0698345,11.4597629 15.2993345,11.9597629 13.8408345,13.4597629 C12.3823345,14.9597629 11.6533345,16.4597629 11.6533345,18.9597629 C11.6533345,20.9597629 12.3823345,22.4597629 13.8408345,23.9597629 C15.2993345,25.4597629 17.0698345,26.4597629 19.1533345,26.4597629 C21.2368345,26.4597629 23.0073345,25.4597629 24.4658345,23.9597629 C25.9243345,22.4597629 26.6533345,20.9597629 26.6533345,18.9597629 C26.6533345,16.4597629 25.9243345,14.9597629 24.4658345,13.4597629 C23.0073345,11.9597629 21.2368345,11.4597629 19.1533345,11.4597629 Z M50.4033345,17.4597629 L30.4033345,37.4597629 L24.1533345,31.4597629 L11.6533345,43.9597629 L11.6533345,51.4597629 L71.6533345,51.4597629 L71.6533345,41.4597629 L50.4033345,17.4597629 Z" id="形状" fill="#E6E6E6" fill-rule="nonzero"></path>
                    </g>
                    <g transform="translate(1.000000, 0.000000)">
                        <g id="编组-5" transform="translate(38.482886, 41.522303)">
                            <polygon id="矩形" fill="#FFFFFF" points="3 0 68 -9.09498171e-13 68 65 3 65"></polygon>
                            <path d="M64.6315789,0 C67.9452874,-8.55003309e-15 70.6315789,2.6862915 70.6315789,6 L70.6315789,62.4736842 C70.6315789,65.7873927 67.9452874,68.4736842 64.6315789,68.4736842 L6,68.4736842 C2.6862915,68.4736842 4.05812251e-16,65.7873927 0,62.4736842 L0,6 C-4.05812251e-16,2.6862915 2.6862915,4.16143205e-15 6,0 L64.6315789,0 Z M65.4736842,3.15789474 L5.15789474,3.15789474 C4.05332524,3.15789474 3.15789474,4.05332524 3.15789474,5.15789474 L3.15789474,5.15789474 L3.15789474,63.3157895 C3.15789474,64.420359 4.05332524,65.3157895 5.15789474,65.3157895 L5.15789474,65.3157895 L65.4736842,65.3157895 C66.5782537,65.3157895 67.4736842,64.420359 67.4736842,63.3157895 L67.4736842,63.3157895 L67.4736842,5.15789474 C67.4736842,4.05332524 66.5782537,3.15789474 65.4736842,3.15789474 L65.4736842,3.15789474 Z" id="形状结合" fill="#E6E6E6" fill-rule="nonzero"></path>
                            <polygon id="路径" stroke="#E6E6E6" stroke-width="2" fill="#E6E6E6" fill-rule="nonzero" stroke-linecap="round" stroke-linejoin="round" points="28 41.1036667 28 31 36.75 36.0518333 45.5 41.1036667 36.75 46.1555 28 51.2073333"></polygon>
                            <line x1="3.51711391" y1="18.4776967" x2="68.5171139" y2="18.4776967" id="路径" stroke="#E6E6E6" stroke-width="3.5" stroke-linecap="round" stroke-linejoin="round"></line>
                            <g id="编组-7" transform="translate(14.000000, 2.000000)" stroke="#E6E6E6" stroke-linecap="round" stroke-linejoin="round" stroke-width="4">
                                <line x1="43" y1="2.38742359e-11" x2="34" y2="15" id="路径" transform="translate(38.500000, 7.500000) scale(-1, 1) translate(-38.500000, -7.500000) "></line>
                                <line x1="9" y1="2.38742359e-11" x2="-2.84217094e-13" y2="15" id="路径" transform="translate(4.500000, 7.500000) scale(-1, 1) translate(-4.500000, -7.500000) "></line>
                                <line x1="26" y1="2.38742359e-11" x2="17" y2="15" id="路径" transform="translate(21.500000, 7.500000) scale(-1, 1) translate(-21.500000, -7.500000) "></line>
                            </g>
                        </g>
                        <circle id="椭圆形" stroke="#E6E6E6" stroke-width="3" fill="#FFFFFF" cx="107" cy="89" r="19"></circle>
                        <path d="M113.307034,88.6269144 C113.39234,88.6269144 113.480692,88.6475832 113.553812,88.6977787 C114.114392,89.0845794 114.108299,89.7105469 113.748796,90.0648682 L107.119323,96.587332 C106.781147,96.9180318 106.229706,96.9239372 105.888483,96.59619 L105.879343,96.587332 L99.2498698,90.0648682 C98.9116935,89.7312157 98.9177868,89.1967811 99.2620563,88.8719866 C99.4235279,88.7184474 99.6428855,88.6298671 99.8683363,88.6298671 L102.963715,88.6298671 L102.963715,81.4222328 C102.963715,81.1889713 103.1587,81 103.399384,81 L109.599282,81 C109.839966,81 110.034951,81.1889713 110.034951,81.4222328 L110.034951,88.6269144 L113.307034,88.6269144 Z" id="形状" fill="#E6E6E6" fill-rule="nonzero" transform="translate(106.500000, 88.919355) scale(1, -1) rotate(-270.000000) translate(-106.500000, -88.919355) "></path>
                    </g>
                </g>
            </g>
        </g>
    </g>
</svg>