<?xml version="1.0" encoding="UTF-8"?>
<svg width="24px" height="24px" viewBox="0 0 24 24" version="1.1" xmlns="http://www.w3.org/2000/svg" xmlns:xlink="http://www.w3.org/1999/xlink">
    <title>icon/相机选中</title>
    <defs>
        <path d="M18.8171818,14 L19.3626364,14.8181818 L20.999,14.8181818 L20.999,18.9090909 L14.999,18.9090909 L14.999,14.8181818 L16.6353636,14.8181818 L17.1808182,14 L18.8171818,14 Z M18.9828347,9.57173073 C18.9941726,9.67000799 19,9.76996319 19,9.87127946 L19.0007336,13.0169738 C18.9407631,13.0057779 18.8793549,13 18.8171818,13 L17.1808182,13 L17.0566771,13.0077235 C16.7703879,13.0435112 16.5110504,13.201876 16.3487679,13.4452998 L16.099,13.819 L14.999,13.8181818 C14.4467153,13.8181818 13.999,14.2658971 13.999,14.8181818 L13.999,18.714 L5.58572843,18.7141633 C4.15774894,18.7141633 3.00014285,17.5565572 3.00014285,16.1285777 L3,9.571 L18.9828347,9.57173073 Z M17.999,15.4090909 C17.2709758,15.4090909 16.6808182,15.9992485 16.6808182,16.7272727 C16.6808182,17.4552969 17.2709758,18.0454545 17.999,18.0454545 C18.7270242,18.0454545 19.3171818,17.4552969 19.3171818,16.7272727 C19.3171818,15.9992485 18.7270242,15.4090909 17.999,15.4090909 Z M10.2937532,5 C11.0768377,5 11.7927123,5.44243483 12.1429184,6.14284694 C12.4931244,6.84325905 13.208999,7.28569388 13.9920836,7.28569388 L16.4144144,7.28569388 C17.3077598,7.28569388 18.0952873,7.73875377 18.559762,8.42763858 L3,8.428 L3.00014285,7.58558559 C3.00014285,6.1576061 4.15774894,5 5.58572843,5 L10.2937532,5 Z" id="path-1"></path>
    </defs>
    <g id="icon/相机选中" stroke="none" stroke-width="1" fill="none" fill-rule="evenodd">
        <mask id="mask-2" fill="white">
            <use xlink:href="#path-1"></use>
        </mask>
        <use id="形状结合" fill="#FFFFFF" fill-rule="nonzero" xlink:href="#path-1"></use>
    </g>
</svg>