<?xml version="1.0" encoding="UTF-8"?>
<svg width="24px" height="24px" viewBox="0 0 24 24" version="1.1" xmlns="http://www.w3.org/2000/svg" xmlns:xlink="http://www.w3.org/1999/xlink">
    <title>icon/画板选中</title>
    <defs>
        <path d="M17.499,13 C19.4319966,13 20.999,14.5670034 20.999,16.5 C20.999,18.4329966 19.4319966,20 17.499,20 C16.927625,20 17.274125,19.5944375 16.6384375,18.94125 C16.0241875,18.31125 13.999,18.6853125 13.999,16.5 C13.999,14.5670034 15.5660034,13 17.499,13 Z M18.9828347,9.57173073 C18.9941726,9.67000799 19,9.76996319 19,9.87127946 L19.0000741,12.4692665 C18.5327523,12.2951606 18.0269891,12.2 17.499,12.2 C15.1241756,12.2 13.199,14.1251756 13.199,16.5 C13.199,17.5522321 13.5517901,18.2476468 14.2007654,18.7145369 L5.58572843,18.7141633 C4.15774894,18.7141633 3.00014285,17.5565572 3.00014285,16.1285777 L3,9.571 L18.9828347,9.57173073 Z M19.199,16.4 C18.7019437,16.4 18.299,16.8029437 18.299,17.3 C18.299,17.7970563 18.7019437,18.2 19.199,18.2 C19.6960563,18.2 20.099,17.7970563 20.099,17.3 C20.099,16.8029437 19.6960563,16.4 19.199,16.4 Z M18.299,14.4 C17.8571722,14.4 17.499,14.7581722 17.499,15.2 C17.499,15.6418278 17.8571722,16 18.299,16 C18.7408278,16 19.099,15.6418278 19.099,15.2 C19.099,14.7581722 18.7408278,14.4 18.299,14.4 Z M16.149,14.3 C15.7900149,14.3 15.499,14.5910149 15.499,14.95 C15.499,15.3089851 15.7900149,15.6 16.149,15.6 C16.5079851,15.6 16.799,15.3089851 16.799,14.95 C16.799,14.5910149 16.5079851,14.3 16.149,14.3 Z M10.2937532,5 C11.0768377,5 11.7927123,5.44243483 12.1429184,6.14284694 C12.4931244,6.84325905 13.208999,7.28569388 13.9920836,7.28569388 L16.4144144,7.28569388 C17.3077598,7.28569388 18.0952873,7.73875377 18.559762,8.42763858 L3,8.428 L3.00014285,7.58558559 C3.00014285,6.1576061 4.15774894,5 5.58572843,5 L10.2937532,5 Z" id="path-1"></path>
    </defs>
    <g id="icon/画板选中" stroke="none" stroke-width="1" fill="none" fill-rule="evenodd">
        <mask id="mask-2" fill="white">
            <use xlink:href="#path-1"></use>
        </mask>
        <use id="形状结合" fill="#FFFFFF" fill-rule="nonzero" xlink:href="#path-1"></use>
    </g>
</svg>