<?xml version="1.0" encoding="UTF-8"?>
<svg width="24px" height="24px" viewBox="0 0 24 24" version="1.1" xmlns="http://www.w3.org/2000/svg" xmlns:xlink="http://www.w3.org/1999/xlink">
    <!-- Generator: Sketch 58 (84663) - https://sketch.com -->
    <title>icon_iphone_normal</title>
    <desc>Created with Sketch.</desc>
    <g id="深色主题备份" stroke="none" stroke-width="1" fill="none" fill-rule="evenodd">
        <g id="btn状态" transform="translate(-304.000000, -496.000000)">
            <g id="icon_iphone_normal" transform="translate(304.000000, 496.000000)">
                <path d="M7.00247329,3 L16.9975267,3 C17.5051882,3 17.9344273,3.38602483 17.993157,3.88334372 L18,3.9999602 L18,19.0000398 C18,19.5063445 17.613005,19.9345796 17.1144363,19.9931729 L16.9975267,20 L7.00247329,20 C6.49481184,20 6.06557275,19.6139752 6.00684298,19.1166563 L6,19.0000398 L6,3.9999602 C6,3.49365545 6.38699498,3.06542037 6.88556373,3.00682712 L7.00247329,3 L16.9975267,3 Z M13,18 L11,18 L11,19 L13,19 L13,18 Z M17,4 L7,4 L7,17 L17,17 L17,4 Z M8,5 L16,5 L16,16 L8,16 L8,5 Z" id="Combined-Shape" fill="#B0B5BF" fill-rule="nonzero"></path>
                <polygon id="Stroke-1" stroke-opacity="0.00784313771" stroke="#000000" stroke-width="1.33333335e-11" points="0 0 23.9999985 0 23.9999985 23.9999985 0 23.9999985"></polygon>
            </g>
        </g>
    </g>
</svg>