<?xml version="1.0" encoding="UTF-8"?>
<svg width="16px" height="16px" viewBox="0 0 16 16" version="1.1" xmlns="http://www.w3.org/2000/svg" xmlns:xlink="http://www.w3.org/1999/xlink">
    <title>人物</title>
    <g id="人物" stroke="none" stroke-width="1" fill="none" fill-rule="evenodd">
        <g id="编组">
            <g id="阅读" transform="translate(1, 2)" fill="#000000" fill-rule="nonzero">
                <path d="M13.1764706,12.2352941 L13.1764706,10.7058824 C12.8866157,10.7019059 12.5175098,10.7211765 11.9411765,10.6670863 L11.9411765,10.5289294 C11.9411765,9.55686078 11.2318706,8.71328824 10.2162941,8.47752941 L8.64705882,8.11324902 L8.64705882,7.16575294 C8.7780549,7.08074314 8.90111765,6.98589412 9.01501176,6.88237843 L9.89165882,6.88237843 C10.7947137,6.88235294 11.5294118,6.20013333 11.5294118,5.36155686 L11.5294118,3.48364314 C11.5294118,1.56275294 9.84644706,0 7.77776863,0 L6.22220392,0 C4.15355294,0 2.47058824,1.56275294 2.47058824,3.48366863 L2.47058824,5.36158235 C2.47058824,6.20013333 3.20528627,6.88235294 4.10836863,6.88235294 L4.98501569,6.88235294 C5.0989098,6.98586863 5.2219451,7.08071765 5.35296863,7.16572745 L5.35296863,8.11322353 L3.78376078,8.47750392 C2.76812941,8.71328824 2.05882353,9.55683529 2.05882353,10.5289294 L2.05882353,10.6670863 C1.484,10.7210235 1.11838039,10.7018294 0.823529412,10.7058824 L0.823529412,12.2352941 L0,12.2352941 L0,13 L14,13 L14,12.2352941 L13.1764706,12.2352941 Z M4.39613725,6.11764706 L4.10836863,6.11764706 C3.65938039,6.11764706 3.29411765,5.77847451 3.29411765,5.36155686 L3.29411765,3.48364314 C3.29411765,1.98443725 4.60767451,0.764705882 6.22220392,0.764705882 L7.77776863,0.764705882 C9.39232549,0.764705882 10.7058824,1.98443725 10.7058824,3.48366863 L10.7058824,5.36158235 C10.7058824,5.77847451 10.3406196,6.11764706 9.89163137,6.11764706 L9.60386275,6.11764706 C9.78229412,5.76980784 9.88235294,5.38085294 9.88235294,4.97058824 L9.88235294,3.66633137 C9.88235294,3.1205098 9.40415686,2.67647059 8.81634902,2.67647059 L5.18365098,2.67647059 C4.59584314,2.67647059 4.11764706,3.1205098 4.11764706,3.66633137 L4.11764706,4.97058824 C4.11764706,5.38085294 4.21770588,5.76980784 4.39613725,6.11764706 L4.39613725,6.11764706 Z M4.94117647,4.97058824 L4.94117647,3.66633137 C4.94117647,3.54216863 5.04996471,3.44117647 5.18365098,3.44117647 L8.81632157,3.44117647 C8.95003529,3.44117647 9.05879608,3.54219412 9.05879608,3.66633137 L9.05879608,4.97058824 C9.05879608,6.02473529 8.13520784,6.88235294 6.99997255,6.88235294 C5.86473725,6.88235294 4.94117647,6.02473529 4.94117647,4.97058824 Z M7.82352941,8.24026667 C7.34176471,8.59139412 6.65823529,8.59139412 6.17647059,8.24026667 L6.17647059,7.53556471 C6.69976863,7.68068039 7.27464706,7.68779216 7.82352941,7.53556471 L7.82352941,8.24026667 Z M2.88235294,10.5289294 C2.88235294,9.90839608 3.33515686,9.3698902 3.98346667,9.21942157 L5.65407843,8.83158824 C6.43503137,9.41087843 7.55681569,9.4169451 8.34594902,8.83158824 L10.0165608,9.21942157 C10.6648431,9.3698902 11.1176471,9.90837059 11.1176471,10.5289294 L11.1176471,10.5496275 C10.1887882,10.3713235 9.6027098,10.1052059 9.34285882,10.0172137 C8.49890588,9.7037098 7.54366667,9.95629216 7,10.6175333 C6.45715686,9.95733725 5.50230196,9.70327647 4.65714118,10.0172137 C4.39630196,10.1055373 3.81016863,10.3715275 2.88235294,10.5496275 L2.88235294,10.5289294 Z M1.64705882,12.2352941 L1.64705882,11.4619216 C3.4945098,11.3839471 4.71042353,10.8028216 4.96297255,10.7272431 C5.73783137,10.4394588 6.58823529,10.9649902 6.58823529,11.7489922 L6.58823529,12.2352941 L1.64705882,12.2352941 Z M7.41176471,12.2352941 L7.41176471,11.7489922 C7.41176471,10.9721784 8.25461961,10.4366294 9.03702745,10.7272431 C9.28705098,10.8020824 10.5045294,11.3839216 12.3529412,11.4619216 L12.3529412,12.2352941 L7.41176471,12.2352941 Z" id="形状"></path>
            </g>
            <rect id="矩形" fill="#D8D8D8" opacity="0" x="0" y="0" width="16" height="16"></rect>
        </g>
    </g>
</svg>