<?xml version="1.0" encoding="UTF-8"?>
<svg width="16px" height="16px" viewBox="0 0 16 16" version="1.1" xmlns="http://www.w3.org/2000/svg" xmlns:xlink="http://www.w3.org/1999/xlink">
    <title>照片分类/icon/物体</title>
    <g id="照片分类/icon/物体" stroke="none" stroke-width="1" fill="none" fill-rule="evenodd">
        <g id="编组">
            <rect id="矩形" x="0" y="0" width="16" height="16"></rect>
            <path d="M12,1 C13.6568542,1 15,2.34314575 15,4 L15,12 C15,13.6568542 13.6568542,15 12,15 L6,15 C4.34314575,15 3,13.6568542 3,12 L4,12 C4,13.1045695 4.8954305,14 6,14 L12,14 C13.1045695,14 14,13.1045695 14,12 L14,4 C14,2.8954305 13.1045695,2 12,2 L12,7.82135025 C12,8.09749263 11.7761424,8.32135025 11.5,8.32135025 C11.2829967,8.32135025 11.0907663,8.18137556 11.0241457,7.97485164 L10.9517086,7.75029672 C10.7821557,7.22468256 10.2186114,6.93603792 9.69299722,7.10559088 C9.38692947,7.20432241 9.14702292,7.44422896 9.04829138,7.75029672 L8.97585431,7.97485164 C8.89107783,8.23765872 8.60930569,8.38198104 8.34649861,8.29720456 C8.13997469,8.23058394 8,8.03835356 8,7.82135025 L8,2 L6,2 C4.8954305,2 4,2.8954305 4,4 L4,5 L3,5 L3,4 C3,2.34314575 4.34314575,1 6,1 L12,1 Z M4,6 L4,11 L3,11 L3,6 L4,6 Z M11,2 L9,2 L9,6.326 L9.09164813,6.27544839 C9.13863651,6.25149736 9.18671744,6.22933346 9.2358041,6.2090435 L9.38599444,6.15388226 C9.93663784,5.97625536 10.5080955,6.05006568 10.9762151,6.311723 L11,6.326 L11,2 Z" id="形状结合" fill="#FFFFFF" fill-rule="nonzero"></path>
            <rect id="矩形" stroke="#FFFFFF" x="1.5" y="4.5" width="4" height="2" rx="1"></rect>
            <rect id="矩形" stroke="#FFFFFF" x="1.5" y="10.5" width="4" height="2" rx="1"></rect>
        </g>
    </g>
</svg>