<?xml version="1.0" encoding="UTF-8"?>
<svg width="16px" height="16px" viewBox="0 0 16 16" version="1.1" xmlns="http://www.w3.org/2000/svg" xmlns:xlink="http://www.w3.org/1999/xlink">
    <title>场景</title>
    <g id="场景" stroke="none" stroke-width="1" fill="none" fill-rule="evenodd">
        <g id="编组">
            <g id="电影" transform="translate(2, 2)" fill="#FFFFFF" fill-rule="nonzero">
                <path d="M11.4744721,2.8804573 L8.79157671,2.8804573 L8.79157671,0.51425915 C8.79157671,0.230304352 8.55633504,0 8.2659784,0 L0.52559831,0 C0.23524167,0 0,0.230373223 0,0.51425915 L0,3.05187702 L0,8.94812298 L0,11.4857409 C0,11.7696956 0.23524167,12 0.52559831,12 L8.26590801,12 L11.4744017,12 C11.7647583,12 12,11.7696268 12,11.4857409 L12,3.39478532 C12,3.11083053 11.7648287,2.8804573 11.4744721,2.8804573 Z M7.7403097,10.9714817 L6.360183,10.9714817 L6.360183,9.462451 L7.7403097,9.462451 L7.7403097,10.9714817 Z M5.30898638,9.46238213 L5.30898638,10.9714128 L3.48244955,10.9714128 L3.48244955,9.46238213 L5.30898638,9.46238213 Z M1.05126701,8.43386383 L1.05126701,3.56620504 L7.7403097,3.56620504 L7.7403097,8.43386383 L1.05126701,8.43386383 Z M3.48244955,2.53761787 L3.48244955,1.02858717 L5.30898638,1.02858717 L5.30898638,2.53761787 L3.48244955,2.53761787 L3.48244955,2.53761787 Z M7.7403097,2.53761787 L6.360183,2.53761787 L6.360183,1.02858717 L7.7403097,1.02858717 L7.7403097,2.53761787 Z M1.05126701,1.02858717 L2.43118254,1.02858717 L2.43118254,2.53761787 L1.05126701,2.53761787 L1.05126701,1.02858717 Z M1.05126701,9.46238213 L2.43118254,9.46238213 L2.43118254,10.9714128 L1.05126701,10.9714128 L1.05126701,9.46238213 Z M10.9488738,10.9714817 L8.7916471,10.9714817 L8.7916471,8.94812298 L8.7916471,3.90904447 L10.9488738,3.90904447 L10.9488738,10.9714817 Z" id="形状"></path>
            </g>
            <rect id="矩形" fill="#D8D8D8" opacity="0" x="0" y="0" width="16" height="16"></rect>
        </g>
    </g>
</svg>