<?xml version="1.0" encoding="UTF-8"?>
<svg width="16px" height="16px" viewBox="0 0 16 16" version="1.1" xmlns="http://www.w3.org/2000/svg" xmlns:xlink="http://www.w3.org/1999/xlink">
    <title>照片分类/icon/动物@1x</title>
    <g id="照片分类/icon/动物" stroke="none" stroke-width="1" fill="none" fill-rule="evenodd">
        <g id="编组">
            <rect id="矩形" x="0" y="0" width="16" height="16"></rect>
            <g id="爪子" transform="translate(0, 1)" fill="#FFFFFF" fill-rule="nonzero">
                <path d="M8.05962694,5.99854754 C8.89258833,6.00510013 9.68641955,6.35330608 10.2558275,6.96188847 L12.7177531,9.59104408 C13.5718302,10.5221885 13.6433139,11.9298305 12.8879674,12.9428672 C12.1326209,13.9559038 10.7641336,14.2877444 9.62937803,13.7330332 L8.95692045,13.402973 C8.42110197,13.1396705 7.79699517,13.1243206 7.24890474,13.3609643 L6.47536782,13.6944337 C5.22660925,14.2393672 3.76920226,13.7309796 3.12924337,12.5272042 L3.07930983,12.4344036 C2.53222071,11.4250227 2.70415262,10.1768407 3.50371606,9.35332218 L5.84857201,6.92721829 C6.42746511,6.32766914 7.22666554,5.99199496 8.05962694,5.99854754 Z M8.05176056,6.9985166 C7.49285724,6.99411993 6.95654256,7.2193788 6.56761634,7.6221825 L4.22276039,10.0482864 C3.72617293,10.5597554 3.6196864,11.3328206 3.95992339,11.9605685 L4.01222132,12.0577897 C4.40702155,12.8004168 5.30555143,13.1138512 6.07949012,12.7761304 L6.85251344,12.4428826 C7.66930997,12.0902222 8.59945752,12.1130993 9.39753405,12.5052761 L10.068551,12.8346306 C10.771139,13.1780821 11.6183918,12.9726342 12.0862874,12.3451137 C12.5545584,11.7170898 12.5102304,10.8441913 11.9878132,10.2745554 L9.5256093,7.6451025 C9.14338868,7.23658564 8.61066835,7.00291332 8.05176056,6.9985166 Z" id="路径"></path>
                <path d="M5.6647704,0.202531657 C6.71335427,0.202531657 7.56339946,1.31579603 7.56339946,2.68907724 C7.56339946,4.06235844 6.71335427,5.17562282 5.6647704,5.17562282 C4.61618653,5.17562282 3.76614135,4.06235844 3.76614135,2.68907724 C3.76614135,1.31579603 4.61618653,0.202531657 5.6647704,0.202531657 Z M5.6647704,1.20253166 C5.23627655,1.20253166 4.76614135,1.81824572 4.76614135,2.68907724 C4.76614135,3.55990875 5.23627655,4.17562282 5.6647704,4.17562282 C6.09326425,4.17562282 6.56339946,3.55990875 6.56339946,2.68907724 C6.56339946,1.81824572 6.09326425,1.20253166 5.6647704,1.20253166 Z" id="椭圆形"></path>
                <path d="M10.4358769,0 C11.4844607,0 12.3345059,1.11329025 12.3345059,2.48660337 C12.3345059,3.85991648 11.4844607,4.97320673 10.4358769,4.97320673 C9.38729299,4.97320673 8.5372478,3.85991648 8.5372478,2.48660337 C8.5372478,1.11329025 9.38729299,0 10.4358769,0 Z M10.4358769,1 C10.0073894,1 9.5372478,1.61573668 9.5372478,2.48660337 C9.5372478,3.35747005 10.0073894,3.97320673 10.4358769,3.97320673 C10.8643644,3.97320673 11.3345059,3.35747005 11.3345059,2.48660337 C11.3345059,1.61573668 10.8643644,1 10.4358769,1 Z" id="椭圆形"></path>
                <path d="M14.9058235,3.34781073 C15.821137,3.64447194 16.2463514,4.87699697 15.8537525,6.09530723 C15.6265982,6.7993431 15.1783509,7.3658539 14.6241752,7.64968714 C14.4014193,7.76771671 14.1537477,7.83084968 13.9017264,7.83384439 C13.7587547,7.83395272 13.616659,7.81150775 13.4806683,7.76733463 C12.5653547,7.47067342 12.1401981,6.23814839 12.5327392,5.01983813 C12.7598358,4.31580226 13.2081408,3.74934924 13.7623165,3.46545822 C14.1442937,3.26980282 14.5397789,3.22912314 14.9058235,3.34781073 Z M14.2182496,4.35547231 C13.912201,4.51225372 13.6336226,4.86437499 13.4845532,5.32651384 C13.2452531,6.06921765 13.4668914,6.71165747 13.7896033,6.81625148 C13.8255784,6.82793706 13.8631579,6.83387303 13.889846,6.83391457 C13.9826633,6.83281178 14.0738929,6.80955677 14.1683157,6.7596354 C14.4742474,6.60294575 14.7528173,6.25081348 14.9019516,5.78859066 C15.1412718,5.04593405 14.9196247,4.40349578 14.5975042,4.29909369 C14.4922638,4.26497014 14.3704758,4.27749934 14.2182496,4.35547231 Z" id="路径"></path>
                <path d="M2.1527396,3.52624661 C2.72059652,3.78211257 3.196264,4.32545213 3.45788111,5.01706451 C3.91068884,6.21411039 3.54747285,7.46639743 2.64803414,7.80853436 C2.49237853,7.86775242 2.32722462,7.89800766 2.16070588,7.897812 C1.93236929,7.89548377 1.70714609,7.8445049 1.50002453,7.74826603 C0.93216761,7.49251564 0.45650013,6.94917607 0.194883016,6.25750591 C-0.257924716,5.06040224 0.105349004,3.80817299 1.00472999,3.46603606 C1.36442466,3.3292044 1.76141074,3.35000651 2.1527396,3.52624661 Z M1.36028568,4.40069116 C1.04358367,4.52116897 0.854190572,5.17399923 1.1302122,5.90372728 C1.30202664,6.3579748 1.59743007,6.69539449 1.91067597,6.83647362 L1.92140701,6.84138301 C1.99964092,6.87773434 2.08468627,6.89698429 2.1618866,6.897812 C2.20649313,6.89786441 2.25073888,6.88975878 2.29249838,6.87387168 C2.60919966,6.75340188 2.79858347,6.10056217 2.52256171,5.370869 C2.35074092,4.91664265 2.05529424,4.57916397 1.74209958,4.43804416 C1.58603643,4.36775907 1.46371608,4.36134514 1.36028568,4.40069116 Z" id="路径"></path>
            </g>
        </g>
    </g>
</svg>