<?xml version="1.0" encoding="UTF-8"?>
<svg width="16px" height="16px" viewBox="0 0 16 16" version="1.1" xmlns="http://www.w3.org/2000/svg" xmlns:xlink="http://www.w3.org/1999/xlink">
    <title>照片分类/icon/植物</title>
    <g id="照片分类/icon/植物" stroke="none" stroke-width="1" fill="none" fill-rule="evenodd">
        <g id="编组" transform="translate(-2.0531, -3.8549)">
            <rect id="矩形" x="2.05305865" y="3.85490216" width="16" height="16"></rect>
            <path d="M7.05305865,2.85490216 C8.85458496,2.85490216 10.3779478,6.20021115 10.8787729,9.35834616 C14.0713043,9.50123027 17.5596285,11.009109 17.5596285,12.8483323 C17.5596285,14.7813289 13.7065299,16.3483323 10.3928215,16.3483323 C10.1451402,16.3483323 9.89623588,16.3395779 9.64767512,16.3225705 C8.94890659,17.2775228 8.04297664,17.8549022 7.05305865,17.8549022 C4.84391965,17.8549022 3.05305865,14.9794315 3.05305865,11.4323586 C3.05305865,7.88528577 4.84391965,2.85490216 7.05305865,2.85490216 Z M7.05305865,3.85490216 C5.80473475,3.85490216 4.05305865,7.97113429 4.05305865,11.4323586 C4.05305865,14.1120778 5.17556162,16.251165 6.48141138,16.746477 L6.48163008,10.9333633 C6.48163008,10.617772 6.73746737,10.3619347 7.05305865,10.3619347 C7.36864994,10.3619347 7.62448722,10.617772 7.62448722,10.9333633 L7.62470592,16.746477 C8.93055569,16.251165 10.0530587,14.1120778 10.0530587,11.4323586 C10.0530587,7.97113429 8.30138256,3.85490216 7.05305865,3.85490216 Z M11.0055569,10.3693328 L11.0149906,10.498507 C11.0400873,10.8178578 11.0530587,11.1304801 11.0530587,11.4323586 C11.0530587,11.7434203 11.0392861,12.049317 11.0126667,12.3485625 L12.3337298,12.3483323 C12.6098722,12.3483323 12.8337298,12.5721899 12.8337298,12.8483323 C12.8337298,13.1244747 12.6098722,13.3483323 12.3337298,13.3483323 L10.8719636,13.348734 C10.7299187,14.0792533 10.5088099,14.7537308 10.2247204,15.3463429 C10.2803529,15.3478356 10.3366222,15.3483323 10.3928215,15.3483323 C11.9207566,15.3483323 12.9522119,14.98148 14.4254444,14.3942759 C15.8034916,13.8450109 16.5596285,13.2019289 16.5596285,12.8483323 C16.5596285,12.4947358 15.8034916,11.8516537 14.4254444,11.3023887 C13.1576345,10.7970624 12.2169911,10.4549218 11.0055569,10.3693328 Z" id="形状结合" fill="#FFFFFF" fill-rule="nonzero" transform="translate(10.3063, 10.3549) rotate(-37) translate(-10.3063, -10.3549)"></path>
        </g>
    </g>
</svg>