<?xml version="1.0" encoding="UTF-8"?>
<svg width="16px" height="16px" viewBox="0 0 16 16" version="1.1" xmlns="http://www.w3.org/2000/svg" xmlns:xlink="http://www.w3.org/1999/xlink">
    <title>照片分类/icon/风景</title>
    <g id="照片分类/icon/风景" stroke="none" stroke-width="1" fill="none" fill-rule="evenodd">
        <g id="编组">
            <rect id="矩形" x="0" y="0" width="16" height="16"></rect>
            <path d="M10.9472136,5.34164079 C11.140741,5.43840449 11.2976635,5.59532698 11.3944272,5.78885438 L15.2763932,13.5527864 C15.5233825,14.0467649 15.3231581,14.6474379 14.8291796,14.8944272 C14.6903242,14.9638549 14.5372111,15 14.381966,15 L6.07549943,14.9999022 L1.80424764,15 C1.25196289,15 0.804247642,14.5522847 0.804247642,14 C0.804247642,13.8125803 0.856917086,13.6289327 0.956249338,13.4700011 L4.1520017,8.35679729 C4.44471203,7.88846076 5.06166241,7.74608759 5.52999894,8.03879792 C5.65876807,8.11927863 5.7675176,8.22802815 5.8479983,8.35679729 C6.3971433,9.23542928 6.85552938,9.96884701 7.22315655,10.5570505 L9.60557281,5.78885438 C9.85256206,5.29487588 10.4532351,5.09465154 10.9472136,5.34164079 Z M5,8.88679623 L1.80424764,14 L5.49924764,14 L6.69724764,11.603 L5,8.88679623 Z M10.5,6.23606798 L6.618,14 L14.381966,14 L10.5,6.23606798 Z M4.5,1.5 C5.88071187,1.5 7,2.61928813 7,4 C7,5.38071187 5.88071187,6.5 4.5,6.5 C3.11928813,6.5 2,5.38071187 2,4 C2,2.61928813 3.11928813,1.5 4.5,1.5 Z M4.5,2.5 C3.67157288,2.5 3,3.17157288 3,4 C3,4.82842712 3.67157288,5.5 4.5,5.5 C5.32842712,5.5 6,4.82842712 6,4 C6,3.17157288 5.32842712,2.5 4.5,2.5 Z" id="形状结合" fill="#FFFFFF" fill-rule="nonzero"></path>
        </g>
    </g>
</svg>