<?xml version="1.0" encoding="UTF-8"?>
<svg width="16px" height="16px" viewBox="0 0 16 16" version="1.1" xmlns="http://www.w3.org/2000/svg" xmlns:xlink="http://www.w3.org/1999/xlink">
    <title>照片分类/icon/美食</title>
    <g id="照片分类/icon/美食" stroke="none" stroke-width="1" fill="none" fill-rule="evenodd">
        <g id="编组">
            <rect id="矩形" x="0" y="0" width="16" height="16"></rect>
            <path d="M4.5,1 C6.43299662,1 8,2.56700338 8,4.5 C8,5.89578959 7.18295185,7.10074735 6.00103753,7.66269133 L6,9 C6.55228475,9 7,9.44771525 7,10 L7,12.5 C7,13.8807119 5.88071187,15 4.5,15 C3.11928813,15 2,13.8807119 2,12.5 L2,10 C2,9.44771525 2.44771525,9 3,9 L2.99996673,7.66316861 C1.817511,7.10142984 1,5.89618488 1,4.5 C1,2.56700338 2.56700338,1 4.5,1 Z M15.5,1 C15.7761424,1 16,1.22385763 16,1.5 L16,4.5 C16,4.58457352 15.9790022,4.66424273 15.9419354,4.7340787 C15.73415,6.00986704 14.997258,7.0731126 14.0011983,7.61441703 L14,9 C14.5522847,9 15,9.44771525 15,10 L15,12.5 C15,13.8807119 13.8807119,15 12.5,15 C11.1192881,15 10,13.8807119 10,12.5 L10,10 C10,9.44771525 10.4477153,9 11,9 L10.999798,7.61495824 C10.0032855,7.07384985 9.26599631,6.01040381 9.05883338,4.73422364 C9.02099784,4.66424273 9,4.58457352 9,4.5 L9,1.5 C9,1.22385763 9.22385763,1 9.5,1 C9.77614237,1 10,1.22385763 10,1.5 L10,3.999 L12,3.999 L12,1.5 C12,1.22385763 12.2238576,1 12.5,1 C12.7761424,1 13,1.22385763 13,1.5 L13,3.999 L15,3.999 L15,1.5 C15,1.22385763 15.2238576,1 15.5,1 Z M6,10 L3,10 L3,12.5 C3,13.3284271 3.67157288,14 4.5,14 C5.32842712,14 6,13.3284271 6,12.5 L6,10 Z M14,10 L11,10 L11,12.5 C11,13.3284271 11.6715729,14 12.5,14 C13.3284271,14 14,13.3284271 14,12.5 L14,10 Z M5,8 L4,8 L4,9 L5,9 L5,8 Z M13,8 L12,8 L12,9 L13,9 L13,8 Z M4.5,2 C3.11928813,2 2,3.11928813 2,4.5 C2,5.88071187 3.11928813,7 4.5,7 C5.88071187,7 7,5.88071187 7,4.5 C7,3.11928813 5.88071187,2 4.5,2 Z M12.49,4.999 L10.144,5 L10.1600828,5.05788573 C10.5041949,6.14953032 11.3636909,6.92340678 12.3509944,6.99463391 L12.5,7 C13.5490711,7 14.4785995,6.20411255 14.8399172,5.05788573 L14.855,5 L12.5103176,4.99989566 C12.5068868,4.99996511 12.5034475,5 12.5,5 L12.49,4.999 Z" id="形状结合" fill="#FFFFFF" fill-rule="nonzero"></path>
        </g>
    </g>
</svg>