<?xml version="1.0" encoding="UTF-8"?>
<svg width="16px" height="16px" viewBox="0 0 16 16" version="1.1" xmlns="http://www.w3.org/2000/svg" xmlns:xlink="http://www.w3.org/1999/xlink">
    <title>动物</title>
    <g id="动物" stroke="none" stroke-width="1" fill="none" fill-rule="evenodd">
        <g id="编组">
            <g id="动物-2" transform="translate(2, 2)" fill="#000000" fill-rule="nonzero">
                <path d="M2.45884916,13 C2.2533547,13 2.04644721,12.9585343 1.8513486,12.873891 C1.34659528,12.655245 1.02149821,12.1937013 1.00282608,11.6694836 C1.00090839,11.6164151 1,10.7081641 1,10.7081641 C1,8.11208782 3.24146408,6 5.99656339,6 C7.32278989,6 8.5719055,6.48446396 9.51388966,7.36408843 C10.4557729,8.24380801 10.981116,9.41645042 10.9930258,10.6660326 C10.9930258,10.6660326 11.0006966,11.6489409 10.9999487,11.6703395 C10.981217,12.1933209 10.6565236,12.6540087 10.1523759,12.8725595 C9.6497421,13.0904447 9.06888718,13.0232056 8.63660193,12.6972814 C7.88174287,12.1278888 6.97044158,11.8269772 6.00140806,11.8269772 C5.03166801,11.8269772 4.11996297,12.1282692 3.36480114,12.6983275 C3.10096886,12.8973819 2.78172577,13 2.45884916,13 Z M5.99656339,6.73525536 C3.67173072,6.73525536 1.78029354,8.51751967 1.78029354,10.7081641 C1.78029354,10.7081641 1.78110099,11.599962 1.78271587,11.6449465 C1.79149683,11.8929799 1.93895625,12.102686 2.17725311,12.2058747 C2.41262301,12.3079222 2.67423482,12.2774887 2.87690322,12.124465 C3.75913653,11.4585411 4.86886716,11.0917218 6.00140806,11.0917218 C7.13324244,11.0917218 8.24226654,11.4580656 9.12419709,12.1232287 C9.32747106,12.2765376 9.58999125,12.3069712 9.82637042,12.2045433 C10.0640617,12.1015448 10.2211095,11.612706 10.2215133,11.596348 L10.2127323,10.6725949 C10.2027402,9.61816773 9.75945351,8.6286021 8.96462598,7.88630899 C8.16979847,7.14401586 7.11568055,6.73525536 5.99656339,6.73525536 Z" id="形状"></path>
                <path d="M6,5 C5.43916086,5 4.92124799,4.72242713 4.54179666,4.21851305 C4.19236148,3.75445713 4,3.14408376 4,2.5 C4,1.85591621 4.19236148,1.2456453 4.54179666,0.781486951 C4.92124799,0.277572844 5.43916086,0 6,0 C6.56073159,0 7.07864443,0.277572844 7.45809576,0.781486951 C7.80753094,1.2456453 8,1.85591621 8,2.5 C8,3.14408376 7.80753094,3.75445713 7.45809576,4.21851305 C7.07864443,4.72242713 6.56073159,5 6,5 Z M6.00000001,0.792143125 C5.36664874,0.792143125 4.8317375,1.57424484 4.8317375,2.5 C4.8317375,3.42575513 5.36664874,4.20785687 6.00000001,4.20785687 C6.63324368,4.20785687 7.16826253,3.42575513 7.16826253,2.5 C7.16826253,1.57424484 6.63324368,0.792143125 6.00000001,0.792143125 Z" id="形状"></path>
                <path d="M2,7 C1.43916083,7 0.921355568,6.72252961 0.541904243,6.21851305 C0.192469063,5.75445715 0,5.14408379 0,4.5 C0,3.85591624 0.192469063,3.24564533 0.541904243,2.78148695 C0.921355568,2.27757287 1.43916083,2 2,2 C2.56083917,2 3.07864443,2.27757287 3.45809576,2.78148695 C3.80753094,3.24564533 4,3.85591624 4,4.5 C4,5.14408379 3.80753094,5.75445715 3.45809576,6.21851305 C3.07864443,6.72252961 2.56083917,7 2,7 Z M2.00000001,2.79214313 C1.36675632,2.79214313 0.8317375,3.57424487 0.8317375,4.5 C0.8317375,5.42575516 1.36675632,6.20795936 2.00000001,6.20795936 C2.63324368,6.20795936 3.1682625,5.42575516 3.1682625,4.5 C3.1682625,3.57424487 2.63324368,2.79214313 2.00000001,2.79214313 Z" id="形状"></path>
                <path d="M10,7 C9.43916083,7 8.92135557,6.72252961 8.54190427,6.21851305 C8.19246909,5.75445715 8,5.14408379 8,4.5 C8,3.85591624 8.19246909,3.24564533 8.54190427,2.78148695 C8.92135557,2.27757287 9.43916083,2 10,2 C10.5608392,2 11.0786444,2.27757287 11.4580958,2.78148695 C11.8075309,3.24564533 12,3.85591624 12,4.5 C12,5.14408379 11.8075309,5.75445715 11.4580958,6.21851305 C11.0786444,6.72252961 10.5608392,7 10,7 L10,7 Z M10,2.79214313 C9.36675632,2.79214313 8.8317375,3.57424487 8.8317375,4.5 C8.8317375,5.42575516 9.36675632,6.20795936 10,6.20795936 C10.6332437,6.20795936 11.1682625,5.42575516 11.1682625,4.5 C11.1682625,3.57424487 10.6332437,2.79214313 10,2.79214313 L10,2.79214313 Z" id="形状"></path>
            </g>
            <rect id="矩形" fill="#D8D8D8" opacity="0" x="0" y="0" width="16" height="16"></rect>
        </g>
    </g>
</svg>