<?xml version="1.0" encoding="UTF-8"?>
<svg width="16px" height="16px" viewBox="0 0 16 16" version="1.1" xmlns="http://www.w3.org/2000/svg" xmlns:xlink="http://www.w3.org/1999/xlink">
    <title>植物</title>
    <g id="植物" stroke="none" stroke-width="1" fill="none" fill-rule="evenodd">
        <g id="编组">
            <g id="植物-2" transform="translate(1, 2)" fill="#000000" fill-rule="nonzero">
                <path d="M5.35781611,4.31834621 C6.58819263,2.23840519 8.79491276,0.804862517 11.9528473,0.0117049576 C12.1541915,-0.0388679916 12.3594654,0.0789813708 12.4160062,0.277572708 C13.3231151,3.46289758 13.1761659,6.12656042 11.9563374,8.25059859 C11.8438763,8.44638889 11.6969788,8.65875416 11.5154639,8.88874801 C11.9779248,9.78957867 12.3558718,10.8178182 12.6496668,11.9722845 C12.7005975,12.172392 12.5821126,12.376457 12.3823195,12.4327348 C9.2068049,13.3270383 6.54638811,13.1665308 4.42056243,11.9327359 C2.29569332,10.699532 0.828527949,8.46576491 0.0118015823,5.25638705 C-0.0391290923,5.05627955 0.0793558223,4.85221462 0.279148844,4.79593679 C2.15269964,4.26828721 3.84690723,4.10783117 5.35781611,4.31834621 Z M11.6445745,11.2402617 C10.8460487,8.7127192 9.58079634,6.95679967 7.85401379,5.95461754 C6.00489421,4.88143283 3.67661264,4.70167786 0.851950888,5.43156784 C1.63594719,8.25972125 2.95657699,10.1998671 4.80745459,11.2740797 C6.54328573,12.2815042 8.70137612,12.5016559 11.2959708,11.9210435 L4.02785332,7.72621262 C3.84460631,7.62046684 3.78230025,7.38705521 3.88871175,7.20491036 C3.9950974,7.02276551 4.22992142,6.9608599 4.41316844,7.06660568 L11.6445745,11.2402617 Z M9.26032088,6.00560165 C9.96497391,6.58708777 10.5801492,7.305568 11.1054074,8.1592435 C11.1771498,8.05735237 11.2386544,7.96170576 11.2898953,7.87248357 C12.3524592,6.02233081 12.5201943,3.68574749 11.776503,0.846878154 C9.12275636,1.57478941 7.25861611,2.7841716 6.16471829,4.47037343 C6.90605691,4.64786701 7.59850726,4.9230887 8.24095765,5.29593571 C8.37710026,5.37495594 8.51055414,5.4580878 8.64134514,5.54535697 L9.51492255,4.03274268 C9.76960178,3.59174553 10.4351132,3.97147951 10.1804081,4.41247665 L9.26032088,6.00560165 Z" id="形状"></path>
            </g>
            <rect id="矩形" fill="#D8D8D8" opacity="0" x="0" y="0" width="16" height="16"></rect>
        </g>
    </g>
</svg>