<?xml version="1.0" encoding="UTF-8"?>
<svg width="16px" height="16px" viewBox="0 0 16 16" version="1.1" xmlns="http://www.w3.org/2000/svg" xmlns:xlink="http://www.w3.org/1999/xlink">
    <title>照片分类/icon/场景</title>
    <g id="照片分类/icon/场景" stroke="none" stroke-width="1" fill="none" fill-rule="evenodd">
        <g id="编组">
            <rect id="矩形" x="0" y="0" width="16" height="16"></rect>
            <path d="M9,1 C10.1045695,1 11,1.8954305 11,3 L11,4 L13,4 C13.5522847,4 14,4.44771525 14,5 L14,14 L14.5,14 C14.7761424,14 15,14.2238576 15,14.5 C15,14.7761424 14.7761424,15 14.5,15 L1.5,15 C1.22385763,15 1,14.7761424 1,14.5 C1,14.2238576 1.22385763,14 1.5,14 L2,14 L2,3 C2,1.8954305 2.8954305,1 4,1 L9,1 Z M9,2 L4,2 C3.44771525,2 3,2.44771525 3,3 L3,14 L4,14 L4,10.4 C4,9.3456382 4.81587779,8.48183488 5.85073766,8.40548574 L6,8.4 L7,8.4 C8.1045695,8.4 9,9.2954305 9,10.4 L9,14 L10,14 L10,3 C10,2.48716416 9.61395981,2.06449284 9.11662113,2.00672773 L9,2 Z M13,5 L11,5 L11,14 L13,14 L13,5 Z M7,9.4 L6,9.4 L5.88337887,9.40672773 C5.38604019,9.46449284 5,9.88716416 5,10.4 L5,14 L8,14 L8,10.4 C8,9.84771525 7.55228475,9.4 7,9.4 Z M8.5,6 C8.77614237,6 9,6.22385763 9,6.5 C9,6.77614237 8.77614237,7 8.5,7 L4.5,7 C4.22385763,7 4,6.77614237 4,6.5 C4,6.22385763 4.22385763,6 4.5,6 L8.5,6 Z M8.5,4 C8.77614237,4 9,4.22385763 9,4.5 C9,4.77614237 8.77614237,5 8.5,5 L4.5,5 C4.22385763,5 4,4.77614237 4,4.5 C4,4.22385763 4.22385763,4 4.5,4 L8.5,4 Z" id="形状结合" fill="#FFFFFF" fill-rule="nonzero"></path>
        </g>
    </g>
</svg>