<?xml version="1.0" encoding="UTF-8"?>
<svg width="16px" height="16px" viewBox="0 0 16 16" version="1.1" xmlns="http://www.w3.org/2000/svg" xmlns:xlink="http://www.w3.org/1999/xlink">
    <title>其他</title>
    <g id="其他" stroke="none" stroke-width="1" fill="none" fill-rule="evenodd">
        <rect id="矩形" fill="#D8D8D8" opacity="0" x="0" y="0" width="16" height="16"></rect>
        <g transform="translate(1, 2)" fill="#FFFFFF" fill-rule="nonzero" id="形状">
            <path d="M3.9807191,5.28136535 C3.9807191,5.75607679 3.60350562,6.14091723 3.13820225,6.14091723 C2.67289888,6.14091723 2.29568539,5.75607679 2.29568539,5.28136535 C2.29568539,4.80665391 2.67289888,4.42181347 3.13820225,4.42181347 C3.60350562,4.42181347 3.9807191,4.80665391 3.9807191,5.28136535 Z M7.01573034,4.42181347 C6.55042697,4.42181347 6.17321348,4.80665391 6.17321348,5.28136535 C6.17321348,5.75607679 6.55042697,6.14091723 7.01573034,6.14091723 C7.48103371,6.14091723 7.85824719,5.75607679 7.85824719,5.28136535 C7.85824719,4.80665391 7.48103371,4.42181347 7.01573034,4.42181347 Z M10.8932584,4.42181347 C10.4279551,4.42181347 10.0507416,4.80665391 10.0507416,5.28136535 C10.0507416,5.75607679 10.4279551,6.14091723 10.8932584,6.14091723 C11.3585618,6.14091723 11.7357753,5.75607679 11.7357753,5.28136535 C11.7357753,4.80665391 11.3585618,4.42181347 10.8932584,4.42181347 Z M13.9998427,1.98679094 C13.9998427,0.891327696 13.1263371,0 12.0525843,0 L1.94741573,0 C0.873662921,0 0,0.891167212 0,1.98679094 L0,8.50290444 C0,8.7688263 0.211258427,8.98435621 0.471910112,8.98435621 L13.5280899,8.98435621 C13.7887416,8.98435621 14,8.7688263 14,8.50290444 L13.9998427,1.98679094 Z M0.943820225,1.79275283 C0.943820225,1.33516508 1.39402247,0.962903524 1.94741573,0.962903524 L12.0525843,0.962903524 C12.6059775,0.962903524 13.0560225,1.33516508 13.0560225,1.79275283 L13.0560225,7.96290352 L0.943820225,7.96290352 L0.943820225,1.79275283 Z M11.3651685,10.5185482 C11.3651685,10.2526264 11.1539101,9.99556947 10.8932584,9.99556947 L3.10674157,9.99556947 C2.84608989,9.99556947 2.63483146,10.2526264 2.63483146,10.5185482 C2.63483146,10.7844701 2.84608989,11.0639858 3.10674157,11.0639858 L10.8932584,11.0639858 C11.1539101,11.0639858 11.3651685,10.7844701 11.3651685,10.5185482 Z"></path>
        </g>
    </g>
</svg>