<?xml version="1.0" encoding="UTF-8"?>
<svg width="16px" height="16px" viewBox="0 0 16 16" version="1.1" xmlns="http://www.w3.org/2000/svg" xmlns:xlink="http://www.w3.org/1999/xlink">
    <title>物体</title>
    <g id="物体" stroke="none" stroke-width="1" fill="none" fill-rule="evenodd">
        <rect id="矩形" fill="#D8D8D8" opacity="0" x="0" y="0" width="16" height="16"></rect>
        <g id="智慧生活--物品申请" transform="translate(1, 2)" fill="#FFFFFF" fill-rule="nonzero">
            <path d="M11.7819115,12 L2.21808852,12 C0.994996793,12 0,10.8682171 0,9.47674419 L0,4.52325581 C0,3.13178295 0.994996793,2 2.21808852,2 L11.2951892,2 C11.5430404,2 11.744195,2.21705426 11.744195,2.48449612 C11.744195,2.75193798 11.5430404,2.96899225 11.2951892,2.96899225 L2.21808852,2.96899225 C1.49069917,2.96899225 0.898011546,3.66666667 0.898011546,4.52325581 L0.898011546,9.47674419 C0.898011546,10.3333333 1.49069917,11.0310078 2.21808852,11.0310078 L11.7819115,11.0310078 C12.5093008,11.0310078 13.1019885,10.3333333 13.1019885,9.47674419 L13.1019885,4.52325581 C13.1019885,4.25581395 13.303143,4.03875969 13.5509942,4.03875969 C13.7988454,4.03875969 14,4.25581395 14,4.52325581 L14,9.47674419 C14,10.8682171 13.0050032,12 11.7819115,12 Z" id="路径"></path>
            <path d="M14,6 L13.1019885,6 L13.1019885,3.17360736 C13.1019885,1.87074094 12.0171905,0.811249324 10.6827453,0.811249324 L3.31725465,0.811249324 C1.98280949,0.811249324 0.898011546,1.87074094 0.898011546,3.17360736 L0.898011546,6 L0,6 L0,3.17360736 C0,1.42455381 1.48710712,0 3.31725465,0 L10.6827453,0 C12.5110969,0 14,1.42293131 14,3.17360736 L14,6 Z" id="路径"></path>
            <path d="M9.52076677,6.95 L4.47923323,6.95 C4.21469649,6.95 4,6.726 4,6.45 C4,6.174 4.21469649,5.95 4.47923323,5.95 L9.52076677,5.95 C9.78530351,5.95 10,6.174 10,6.45 C10,6.726 9.78530351,6.95 9.52076677,6.95 Z" id="路径"></path>
            <path d="M11.7819115,12 L2.21808852,12 C0.994996793,12 0,10.8682171 0,9.47674419 L0,4.52325581 C0,4.25581395 0.201154586,4.03875969 0.449005773,4.03875969 C0.69685696,4.03875969 0.898011546,4.25581395 0.898011546,4.52325581 L0.898011546,9.47674419 C0.898011546,10.3333333 1.49069917,11.0310078 2.21808852,11.0310078 L11.7819115,11.0310078 C12.5093008,11.0310078 13.1019885,10.3333333 13.1019885,9.47674419 L13.1019885,4.52325581 C13.1019885,3.66666667 12.5093008,2.96899225 11.7819115,2.96899225 L2.70481078,2.96899225 C2.45695959,2.96899225 2.255805,2.75193798 2.255805,2.48449612 C2.255805,2.21705426 2.45695959,2 2.70481078,2 L11.7819115,2 C13.0050032,2 14,3.13178295 14,4.52325581 L14,9.47674419 C14,10.8682171 13.0050032,12 11.7819115,12 Z" id="路径"></path>
        </g>
    </g>
</svg>