<?xml version="1.0" encoding="UTF-8"?>
<svg width="16px" height="16px" viewBox="0 0 16 16" version="1.1" xmlns="http://www.w3.org/2000/svg" xmlns:xlink="http://www.w3.org/1999/xlink">
    <title>照片分类/icon/人物</title>
    <g id="照片分类/icon/人物" stroke="none" stroke-width="1" fill="none" fill-rule="evenodd">
        <g id="编组">
            <rect id="矩形" x="0" y="0" width="16" height="16"></rect>
            <path d="M8,1 C10.209139,1 12,2.790861 12,5 L12,7 C12,8.41543887 11.2648126,9.65916553 10.1554676,10.3701504 L12.6345066,10.7944868 C14.0010419,11.02875 15,12.2135304 15,13.6 L15,15 C15,15.5522847 14.5522847,16 14,16 L2,16 C1.44771525,16 1,15.5522847 1,15 L1,13.6 C1,12.2135304 1.99895807,11.02875 3.36549341,10.7944868 L5.84453244,10.3701504 C4.73518736,9.65916553 4,8.41543887 4,7 L4,5 C4,2.790861 5.790861,1 8,1 Z M6.64828948,11.2463093 L3.53445723,11.7801091 C2.64800791,11.9320718 2,12.7006196 2,13.6 L2,15 L14,15 L14,13.6 C14,12.7006196 13.3519921,11.9320718 12.4655428,11.7801091 L9.35171052,11.2463093 C8.45709526,11.0929467 7.54290474,11.0929467 6.64828948,11.2463093 Z M9.5,13 C9.77614237,13 10,13.2238576 10,13.5 C10,13.7761424 9.77614237,14 9.5,14 L6.5,14 C6.22385763,14 6,13.7761424 6,13.5 C6,13.2238576 6.22385763,13 6.5,13 L9.5,13 Z M8,2 C6.34314575,2 5,3.34314575 5,5 L5,7 C5,8.65685425 6.34314575,10 8,10 C9.65685425,10 11,8.65685425 11,7 L11,5 C11,3.34314575 9.65685425,2 8,2 Z" id="形状结合" fill="#FFFFFF" fill-rule="nonzero"></path>
        </g>
    </g>
</svg>