<?xml version="1.0" encoding="UTF-8"?>
<svg width="16px" height="16px" viewBox="0 0 16 16" version="1.1" xmlns="http://www.w3.org/2000/svg" xmlns:xlink="http://www.w3.org/1999/xlink">
    <title>美食</title>
    <g id="美食" stroke="none" stroke-width="1" fill="none" fill-rule="evenodd">
        <g id="编组">
            <g id="餐馆" transform="translate(3, 1.9984)" fill="#FFFFFF" fill-rule="nonzero">
                <path d="M3.62024255,0 C3.41048892,0 3.24048509,0.188453493 3.24048509,0.420848478 L3.24048509,3.8872522 C3.24048509,4.49857761 2.87861628,5.01775441 2.37995485,5.19598132 L2.37995485,0.422409495 C2.37995485,0.19001451 2.20992635,0.00156101712 2.00019739,0.00156101712 C1.79044376,0.00156101712 1.62043994,0.19001451 1.62043994,0.422409495 L1.62043994,5.19650085 C1.4348915,5.13060228 1.26478898,5.01649659 1.12298753,4.85940644 C0.88860925,4.59966765 0.759514909,4.25442479 0.759514909,3.88727954 L0.759514909,0.422409495 C0.759514909,0.19001451 0.589511085,0.00156101712 0.379757455,0.00156101712 C0.170028498,0.00156101712 0,0.19001451 0,0.422409495 L0,3.88727954 C0,4.47924554 0.208075799,5.03585601 0.585933356,5.45457167 C0.872620502,5.77222463 1.23096093,5.98129535 1.62043994,6.06387364 L1.62043994,6.99900437 C1.135818,7.17619222 0.784978472,7.68243539 0.784978472,8.27801078 L0.784978472,11.6548514 C0.784978472,12.3974544 1.33012571,13.001561 2.00022207,13.001561 C2.67031842,13.001561 3.21544099,12.397427 3.21544099,11.6548514 L3.21544099,8.27801078 C3.21544099,7.91874054 3.08920883,7.58060707 2.85929654,7.32516126 C2.72235587,7.17378596 2.55852055,7.063317 2.37995485,6.9984575 L2.37995485,6.06327208 C3.30162725,5.86601388 4,4.96555509 4,3.8872522 L4,0.420848478 C4,0.188480837 3.82999618,0 3.62024255,0 Z M2.4559014,8.27801078 L2.4559014,11.6548514 C2.4559014,11.9333206 2.25147736,12.1598641 2.00019739,12.1598641 C1.74891743,12.1598641 1.54449338,11.9333206 1.54449338,11.6548514 L1.54449338,8.27801078 C1.54449338,7.99954148 1.74891743,7.77299807 2.00019739,7.77299807 C2.12191421,7.77299807 2.23652491,7.82560755 2.32224237,7.92032648 C2.40842864,8.01611183 2.4559014,8.14312379 2.4559014,8.27801078 Z" id="形状"></path>
                <path d="M9.27196955,0.648788844 C8.80253739,0.231440372 8.17849371,0.00156101712 7.51477452,0.00156101712 C7.25334666,0.00156101712 7.04140556,0.19001451 7.04140556,0.422409495 L7.04140556,5.38845435 L7.04140556,6.99900437 C6.43732267,7.17619222 6,7.68243539 6,8.27801078 L6,11.6548514 C6,12.3974544 6.67952789,13.001561 7.51477452,13.001561 C8.35002114,13.001561 9.02957979,12.397427 9.02957979,11.6548514 L9.02957979,8.27801078 C9.02957979,7.91874054 8.87223098,7.58060707 8.58607512,7.32554407 C8.41547038,7.17386799 8.21112606,7.06326231 7.98817423,6.99837546 L7.98817423,5.76861525 C9.13282842,5.57143908 10,4.67401546 10,3.59943133 L10,2.21102236 C10,1.62094309 9.74140171,1.06610997 9.27196955,0.648788844 Z M8.08281112,8.27801078 L8.08281112,11.6548514 C8.08281112,11.9333206 7.82799585,12.1598641 7.51477452,12.1598641 C7.20155319,12.1598641 6.94673792,11.9333206 6.94673792,11.6548514 L6.94673792,8.27801078 C6.94673792,7.99954148 7.20155319,7.77299807 7.51477452,7.77299807 C7.66674099,7.77299807 7.80944985,7.82547083 7.91620468,7.92032648 C8.02363615,8.01611183 8.08281112,8.14312379 8.08281112,8.27801078 Z M9.05323133,3.59940398 C9.05323133,4.20703798 8.60557456,4.72337102 7.98814348,4.90135184 L7.98814348,0.908965133 C8.21730806,0.974672293 8.42728077,1.08820376 8.6025297,1.24400876 C8.89317596,1.50238035 9.05323133,1.84581853 9.05323133,2.21107705 L9.05323133,3.59940398 Z" id="形状"></path>
            </g>
            <rect id="矩形" fill="#D8D8D8" opacity="0" x="0" y="0" width="16" height="16"></rect>
        </g>
    </g>
</svg>