<?xml version="1.0" encoding="UTF-8"?>
<svg width="16px" height="16px" viewBox="0 0 16 16" version="1.1" xmlns="http://www.w3.org/2000/svg" xmlns:xlink="http://www.w3.org/1999/xlink">
    <title>风景</title>
    <g id="风景" stroke="none" stroke-width="1" fill="none" fill-rule="evenodd">
        <g id="编组">
            <g id="山" transform="translate(8.5, 8) scale(-1, 1) translate(-8.5, -8)translate(2, 2)" fill="#000000" fill-rule="nonzero">
                <path d="M12.9531291,11.4094961 L9.54693917,4.06667401 C9.481457,3.92557177 9.34094583,3.83537902 9.18649525,3.83537902 C9.03204468,3.83537902 8.89150812,3.92554616 8.82605134,4.06667401 L8.26880545,5.26798925 L6.86011365,2.23129499 C6.79463148,2.09019275 6.65412031,2 6.49966974,2 C6.34519377,2 6.2046826,2.09016715 6.13925121,2.23129499 L4.7305848,5.26804047 L4.17331352,4.06672522 C4.10785674,3.92562299 3.96734557,3.83543023 3.812895,3.83543023 C3.65841903,3.83543023 3.51790786,3.92559738 3.45247647,4.06672522 L0.0375014319,11.4285487 C-0.0201604539,11.5528519 -0.0108675212,11.6982563 0.0622064142,11.8140575 C0.135229569,11.9298586 0.261852124,12 0.397945347,12 L2.23335034,12 L5.77154561,12 L7.22784465,12 L10.7660907,12 L12.6015211,12 C12.6016734,12 12.6019273,12 12.6020543,12 C12.8218347,12 13,11.8203059 13,11.5986397 C13,11.5302141 12.9830137,11.4658346 12.9531291,11.4094961 Z M1.98015601,11.1972538 L1.02344097,11.1972538 L3.812895,5.18384008 L4.2913033,6.21506439 L1.98015601,11.1972538 Z M5.51835127,11.1972538 L2.85882057,11.1972538 L5.08960684,6.38825394 C5.08988614,6.38763934 5.09016543,6.38705035 5.09044473,6.38643575 L6.49969513,3.34843546 L7.82947317,6.21509 L5.51835127,11.1972538 Z M10.7660399,11.1972794 L7.22779387,11.1972794 L6.39701584,11.1972794 L8.62711656,6.38968801 C8.62790367,6.38802347 8.62866539,6.38635892 8.6294271,6.38471999 L9.18649525,5.18386569 L11.9760001,11.1972794 L10.7660399,11.1972794 L10.7660399,11.1972794 Z" id="形状"></path>
                <path d="M10.9999863,0 C9.89717982,0 9,0.897207311 9,1.99998625 C9,3.10279269 9.89715232,4 10.9999863,4 C12.1027927,4 13,3.10279269 13,1.99998625 C13,0.897207311 12.1027927,0 10.9999863,0 Z M10.9999863,3.13820479 C10.3723838,3.13820479 9.86179521,2.62761621 9.86179521,1.99998625 C9.86179521,1.37238379 10.3723838,0.861795212 10.9999863,0.861795212 C11.6276162,0.861795212 12.1382048,1.37238379 12.1382048,1.99998625 C12.1382048,2.62761621 11.6276162,3.13820479 10.9999863,3.13820479 Z" id="形状"></path>
            </g>
            <rect id="矩形" fill="#D8D8D8" opacity="0" x="0" y="0" width="16" height="16"></rect>
        </g>
    </g>
</svg>