<?xml version="1.0" encoding="utf-8" ?>
<svg xmlns="http://www.w3.org/2000/svg" xmlns:xlink="http://www.w3.org/1999/xlink" width="36" height="36">
	<path fill-opacity="0.7019608" transform="translate(10.5 9.5)" d="M12.5 0C14.914273 0 16.884489 1.9012365 16.995102 4.2881641L17 4.5L17 8.6269627C17 8.9031048 16.776142 9.1269627 16.5 9.1269627C16.254539 9.1269627 16.050392 8.9500875 16.008055 8.7168379L16 8.6269627L16 4.5C16 2.6314366 14.535723 1.1048735 12.692036 1.0051788L12.5 1L4.5 1C2.6314366 1 1.1048735 2.4642775 1.0051788 4.3079648L1 4.5L1 12.5C1 14.368564 2.4642775 15.895126 4.3079648 15.994822L4.5 16L8.5267258 16C8.8028679 16 9.0267258 16.223858 9.0267258 16.5C9.0267258 16.745461 8.8498507 16.949608 8.6166019 16.991945L8.5267258 17L4.5 17C2.0857267 17 0.11551091 15.098763 0.0048979893 12.711836L0 12.5L0 4.5C0 2.0857267 1.9012365 0.11551091 4.2881641 0.0048979893L4.5 0L12.5 0ZM10.537509 8.6484175C10.725535 8.8062038 10.768218 9.0729246 10.650711 9.2788115L10.599108 9.3528366L8.7969999 11.5L16 11.5C16.276142 11.5 16.5 11.723858 16.5 12C16.5 12.24546 16.323124 12.449609 16.089876 12.491944L16 12.5L8.7770004 12.5L10.601906 14.713381C10.75804 14.902781 10.751419 15.172813 10.59837 15.353848L10.534144 15.417233C10.344745 15.573369 10.074712 15.566747 9.8936768 15.413698L9.8302917 15.349473L7.3351874 12.322775C7.201045 12.160053 7.1851778 11.933861 7.287096 11.756175L7.337985 11.68332L9.8330898 8.7100172C10.010599 8.4984875 10.325978 8.4709082 10.537509 8.6484175Z"/>
</svg>
