<?xml version="1.0" encoding="UTF-8"?>
<svg width="24px" height="24px" viewBox="0 0 24 24" version="1.1" xmlns="http://www.w3.org/2000/svg" xmlns:xlink="http://www.w3.org/1999/xlink">
    <!-- Generator: Sketch 58 (84663) - https://sketch.com -->
    <title>icon_exit_normal</title>
    <desc>Created with Sketch.</desc>
    <g id="深色主题备份" stroke="none" stroke-width="1" fill="none" fill-rule="evenodd">
        <g id="btn状态" transform="translate(-336.000000, -496.000000)">
            <g id="icon_exit_normal" transform="translate(336.000000, 496.000000)">
                <g id="Group-3">
                    <path d="M15.4995642,14 C15.745238,14 15.9495644,14.1832562 15.9919373,14.4122514 L16,14.5 C16,14.7761424 15.7692032,15 15.4995642,15 L8.50043583,15 C8.22405275,15 8,14.7680664 8,14.5 C8,14.2238576 8.23079681,14 8.50043583,14 L15.4995642,14 Z M12.5568185,7.41701014 L15.7830072,12.1754428 C16.0917591,12.6308332 15.8994425,13 15.3458196,13 L8.65369872,13 C8.10349476,13 7.90325592,12.6371435 8.21600012,12.1754428 L11.4392399,7.41701014 C11.7477096,6.96161979 12.2437882,6.9553094 12.5568185,7.41701014 Z" id="Combined-Shape" fill="#606060"></path>
                    <polygon id="Stroke-1" stroke-opacity="0.00784313771" stroke="#000000" stroke-width="1.33333335e-11" points="0 0 23.9999985 0 23.9999985 23.9999985 0 23.9999985"></polygon>
                </g>
            </g>
        </g>
    </g>
</svg>